<svg width="1280" height="835" viewBox="0 0 1280 835" fill="none" xmlns="http://www.w3.org/2000/svg">
<rect width="1280" height="868" transform="translate(0 -33)" fill="#CCE1FF"/>
<g clip-path="url(#clip0_240_34199)">
<path d="M912.438 546.247V-28.25" stroke="#08209F" stroke-linecap="round" stroke-linejoin="round"/>
<path d="M538.992 551.941H901.379L1451.95 729.649" stroke="#08209F" stroke-linecap="round" stroke-linejoin="round"/>
<path d="M704.006 538.458H678.977V124.557H730.644L708.348 44.0801H641.433L619.137 124.557H670.804V538.458H645.698C639.279 538.463 633.118 540.986 628.538 545.485C623.959 549.983 621.326 556.098 621.205 562.517C621.205 562.517 621.205 562.644 621.205 562.695C621.205 562.695 621.205 562.849 621.205 562.9C621.946 568.672 645.647 573.32 674.839 573.32C704.032 573.32 727.733 568.672 728.473 562.9C728.453 556.419 725.868 550.21 721.283 545.63C716.698 541.05 710.487 538.471 704.006 538.458Z" fill="#08209F"/>
<path d="M886.184 294.14C886.184 294.14 819.652 286.248 775.876 320.395C732.101 354.542 694.455 497.234 695.323 565.579C696.192 633.924 721.604 668.02 785.505 696.012C849.406 724.004 968.448 713.533 1034.98 692.513C1101.51 671.494 1123.4 598.015 1122.53 558.581C1121.66 519.148 1077.89 473.661 1063 464.083C1048.11 454.506 1006.09 434.329 985.1 402.787C964.106 371.245 933.433 302.9 886.184 294.14Z" fill="#CCDFFB"/>
<path opacity="0.13" d="M1047.19 687.789C1022.03 684.392 992.2 677.573 969.623 663.858C921.94 634.921 910.038 580.419 893.003 559.987C875.968 539.555 845.32 541.266 831.707 519.123C818.094 496.979 840.212 333.549 801.059 323.333C793.113 321.038 784.887 319.86 776.617 319.834C776.387 320.038 776.106 320.192 775.876 320.396C732.101 354.543 694.455 497.235 695.323 565.58C696.192 633.925 721.604 668.021 785.505 696.013C849.406 724.004 968.448 713.533 1034.98 692.514C1039.14 691.194 1043.22 689.616 1047.19 687.789Z" fill="#08209F"/>
<path d="M886.184 294.14C886.184 294.14 819.652 286.248 775.876 320.395C732.101 354.542 694.455 497.234 695.323 565.579C696.192 633.924 721.604 668.02 785.505 696.012C849.406 724.004 968.448 713.532 1034.98 692.513C1101.51 671.494 1123.4 598.015 1122.53 558.581C1121.66 519.148 1077.89 473.661 1063 464.083C1048.11 454.506 1006.09 434.329 985.1 402.787C964.106 371.245 933.433 302.9 886.184 294.14Z" stroke="#08209F" stroke-linecap="round" stroke-linejoin="round"/>
<path d="M859.98 324.993C859.98 324.993 816.562 333.293 808.9 340.955C801.238 348.617 769.312 468.655 769.312 468.655C778.188 466.494 787.499 466.937 796.13 469.932C808.9 475.04 810.177 488.449 811.454 494.834C812.479 502.459 813.118 510.13 813.369 517.82C813.369 517.82 942.423 506.301 969.878 499.942C997.334 493.582 1039.12 490.62 1039.12 490.62C1039.12 490.62 968.525 331.403 957.67 325.657C946.816 319.91 901.482 319.272 895.097 320.549C888.712 321.826 859.98 324.993 859.98 324.993Z" fill="#08209F" stroke="#08209F" stroke-linecap="round" stroke-linejoin="round"/>
<path d="M817.199 472.486L828.054 383.734" stroke="white" stroke-linecap="round" stroke-linejoin="round"/>
<path d="M825.5 407.36L840.186 388.205" stroke="white" stroke-linecap="round" stroke-linejoin="round"/>
<path d="M869.557 418.852C869.557 418.852 911.059 405.443 938.515 405.443" stroke="white" stroke-linecap="round" stroke-linejoin="round"/>
<path d="M908.735 382.254L905.951 403.529C905.951 403.529 912.975 403.529 913.613 406.721C913.657 407.905 913.452 409.085 913.013 410.184C912.573 411.284 911.907 412.279 911.059 413.106C911.059 413.106 930.853 423.961 933.407 436.731" stroke="white" stroke-linecap="round" stroke-linejoin="round"/>
<path d="M883.808 301.19C883.808 301.19 859.979 308.852 856.556 314.803C853.134 320.754 855.714 362.486 855.714 367.594C855.714 372.702 858.702 364.606 861.256 358.655C863.81 352.704 872.749 343.74 875.711 344.608C878.674 345.477 880.411 348.848 880.411 354.39C880.411 359.932 887.204 367.594 893.181 371.834C899.157 376.073 904.674 380.364 904.674 380.364C904.674 380.364 917.01 362.486 919.998 357.787C922.986 353.087 922.552 343.331 922.96 339.909C923.369 336.486 931.057 349.282 932.768 345.885C934.479 342.488 928.937 339.5 922.96 330.127C916.984 320.754 918.721 310.972 909.782 304.153C900.843 297.334 890.627 299.453 883.808 301.19Z" fill="white"/>
<path d="M856.557 314.777C854.309 318.761 854.667 338.631 855.177 353.087C860.617 346.089 871.83 332.859 878.317 335.362C886.592 338.554 889.759 362.077 889.759 362.077L884.165 301.189H883.808C883.808 301.189 859.979 308.851 856.557 314.777Z" fill="#CCDFFB"/>
<path opacity="0.5" d="M856.557 314.777C854.309 318.761 854.667 338.631 855.177 353.087C860.617 346.089 871.83 332.859 878.317 335.362C886.592 338.554 889.759 362.077 889.759 362.077L884.165 301.189H883.808C883.808 301.189 859.979 308.851 856.557 314.777Z" fill="white"/>
<path d="M883.808 301.19C883.808 301.19 859.979 308.852 856.556 314.803C853.134 320.754 855.714 362.486 855.714 367.594C855.714 372.702 858.702 364.606 861.256 358.655C863.81 352.704 872.749 343.74 875.711 344.608C878.674 345.477 880.411 348.848 880.411 354.39C880.411 359.932 887.204 367.594 893.181 371.834C899.157 376.073 904.674 380.364 904.674 380.364C904.674 380.364 917.01 362.486 919.998 357.787C922.986 353.087 922.552 343.331 922.96 339.909C923.369 336.486 931.057 349.282 932.768 345.885C934.479 342.488 928.937 339.5 922.96 330.127C916.984 320.754 918.721 310.972 909.782 304.153C900.843 297.334 890.627 299.453 883.808 301.19Z" stroke="#08209F" stroke-linecap="round" stroke-linejoin="round"/>
<path d="M827.417 473.765C827.417 473.765 812.732 452.694 794.854 450.779C776.976 448.863 755.267 463.549 754.628 468.657C753.99 473.765 749.52 501.22 752.713 505.051C755.905 508.882 768.037 512.075 791.661 504.413C815.286 496.751 824.863 487.173 827.417 473.765Z" fill="white"/>
<path d="M767.679 504.387C767.679 504.387 762.571 489.778 765.125 484.696C767.679 479.613 777.895 471.926 784.203 464.264C790.512 456.602 769.314 468.58 768.292 464.264C767.5 460.79 779.504 453.843 784.229 451.264C769.365 454.124 755.139 464.468 754.628 468.58C753.99 473.688 749.52 501.143 752.713 504.974C754.347 506.941 758.408 508.754 765.176 508.984C766.708 506.353 767.679 504.387 767.679 504.387Z" fill="#CCDFFB"/>
<path opacity="0.5" d="M767.679 504.387C767.679 504.387 762.571 489.778 765.125 484.696C767.679 479.613 777.895 471.926 784.203 464.264C790.512 456.602 769.314 468.58 768.292 464.264C767.5 460.79 779.504 453.843 784.229 451.264C769.365 454.124 755.139 464.468 754.628 468.58C753.99 473.688 749.52 501.143 752.713 504.974C754.347 506.941 758.408 508.754 765.176 508.984C766.708 506.353 767.679 504.387 767.679 504.387Z" fill="white"/>
<path d="M827.417 473.765C827.417 473.765 812.732 452.694 794.854 450.779C776.976 448.863 755.267 463.549 754.628 468.657C753.99 473.765 749.52 501.22 752.713 505.051C755.905 508.882 768.037 512.075 791.661 504.413C815.286 496.751 824.863 487.173 827.417 473.765Z" stroke="#08209F" stroke-linecap="round" stroke-linejoin="round"/>
<path d="M777.613 479.51C777.613 479.51 753.656 489.011 752.711 507.604C752.175 517.82 769.312 522.29 787.19 522.29C805.068 522.29 830.608 499.942 847.209 490.365C863.81 480.787 902.12 458.44 906.59 456.524C911.059 454.609 926.383 459.717 932.768 461.632C938.854 462.936 945.062 463.578 951.285 463.548C951.285 463.548 960.224 477.595 964.693 477.595C969.163 477.595 955.116 456.524 953.2 452.055C951.285 447.585 919.998 437.369 916.167 437.369C912.336 437.369 822.946 459.717 809.538 464.825C796.129 469.933 777.613 479.51 777.613 479.51Z" fill="white"/>
<path d="M827.697 476.854C864.194 458.593 916.167 437.369 916.167 437.369C912.336 437.369 822.946 459.717 809.538 464.825C796.129 469.933 777.613 479.51 777.613 479.51C777.613 479.51 753.656 489.011 752.711 507.604C752.175 517.82 769.312 522.29 787.19 522.29C805.068 522.29 830.608 499.942 847.209 490.365L857.272 484.542C832.882 487.632 800.267 490.543 827.697 476.854Z" fill="#CCDFFB"/>
<path opacity="0.5" d="M827.697 476.854C864.194 458.593 916.167 437.369 916.167 437.369C912.336 437.369 822.946 459.717 809.538 464.825C796.129 469.933 777.613 479.51 777.613 479.51C777.613 479.51 753.656 489.011 752.711 507.604C752.175 517.82 769.312 522.29 787.19 522.29C805.068 522.29 830.608 499.942 847.209 490.365L857.272 484.542C832.882 487.632 800.267 490.543 827.697 476.854Z" fill="white"/>
<path d="M777.613 479.51C777.613 479.51 753.656 489.011 752.711 507.604C752.175 517.82 769.312 522.29 787.19 522.29C805.068 522.29 830.608 499.942 847.209 490.365C863.81 480.787 902.12 458.44 906.59 456.524C911.059 454.609 926.383 459.717 932.768 461.632C938.854 462.936 945.062 463.578 951.285 463.548C951.285 463.548 960.224 477.595 964.693 477.595C969.163 477.595 955.116 456.524 953.2 452.055C951.285 447.585 919.998 437.369 916.167 437.369C912.336 437.369 822.946 459.717 809.538 464.825C796.129 469.933 777.613 479.51 777.613 479.51Z" stroke="#08209F" stroke-linecap="round" stroke-linejoin="round"/>
<path d="M964.362 337.509L944.9 446.948L1085.37 447.586L1106.26 343.792C1106.44 342.876 1106.41 341.933 1106.18 341.029C1105.96 340.124 1105.54 339.279 1104.96 338.551C1104.38 337.823 1103.64 337.23 1102.81 336.812C1101.98 336.394 1101.06 336.161 1100.13 336.13L970.9 332.248C969.361 332.197 967.855 332.701 966.656 333.666C965.456 334.631 964.642 335.995 964.362 337.509Z" fill="white" stroke="#08209F" stroke-linecap="round" stroke-linejoin="round"/>
<path d="M944.9 446.947L876.504 495.32L1032.94 490.851L1085.37 447.586L944.9 446.947Z" fill="white"/>
<path d="M944.9 446.947L876.504 495.32L1032.94 490.851L1085.37 447.586L944.9 446.947Z" fill="#CCDFFB"/>
<path opacity="0.5" d="M944.9 446.947L876.504 495.32L1032.94 490.851L1085.37 447.586L944.9 446.947Z" fill="white"/>
<path d="M944.9 446.947L876.504 495.32L1032.94 490.851L1085.37 447.586L944.9 446.947Z" stroke="#08209F" stroke-linecap="round" stroke-linejoin="round"/>
<path d="M996.619 494.835C996.619 494.835 1052.81 445.67 1108.36 429.069C1163.91 412.468 1175.4 415.022 1174.12 439.924C1172.85 464.825 1146.03 595.079 1128.15 628.281C1110.27 661.483 1087.92 722.141 1088.56 733.634C1089.2 745.127 1110.91 778.967 1130.07 791.099C1149.22 803.23 1147.31 817.916 1135.17 820.47C1123.04 823.024 1109 827.493 1067.49 800.676C1025.99 773.859 1008.75 735.549 1011.3 725.972C1013.86 716.394 1040.68 703.624 1051.53 684.469C1062.38 665.314 1080.26 593.802 1081.54 561.239C1082.58 540.681 1086.89 520.42 1094.31 501.22C1094.31 501.22 1024.07 513.99 1003.64 526.76L996.619 494.835Z" fill="white"/>
<path d="M996.619 494.835C996.619 494.835 1052.81 445.67 1108.36 429.069C1163.91 412.468 1175.4 415.022 1174.12 439.924C1172.85 464.825 1146.03 595.079 1128.15 628.281C1110.27 661.483 1087.92 722.141 1088.56 733.634C1089.2 745.127 1110.91 778.967 1130.07 791.099C1149.22 803.23 1147.31 817.916 1135.17 820.47C1123.04 823.024 1109 827.493 1067.49 800.676C1025.99 773.859 1008.75 735.549 1011.3 725.972C1013.86 716.394 1040.68 703.624 1051.53 684.469C1062.38 665.314 1080.26 593.802 1081.54 561.239C1082.58 540.681 1086.89 520.42 1094.31 501.22C1094.31 501.22 1024.07 513.99 1003.64 526.76L996.619 494.835Z" fill="#CCDFFB"/>
<path opacity="0.5" d="M996.619 494.835C996.619 494.835 1052.81 445.67 1108.36 429.069C1163.91 412.468 1175.4 415.022 1174.12 439.924C1172.85 464.825 1146.03 595.079 1128.15 628.281C1110.27 661.483 1087.92 722.141 1088.56 733.634C1089.2 745.127 1110.91 778.967 1130.07 791.099C1149.22 803.23 1147.31 817.916 1135.17 820.47C1123.04 823.024 1109 827.493 1067.49 800.676C1025.99 773.859 1008.75 735.549 1011.3 725.972C1013.86 716.394 1040.68 703.624 1051.53 684.469C1062.38 665.314 1080.26 593.802 1081.54 561.239C1082.58 540.681 1086.89 520.42 1094.31 501.22C1094.31 501.22 1024.07 513.99 1003.64 526.76L996.619 494.835Z" fill="white"/>
<path d="M996.619 494.835C996.619 494.835 1052.81 445.67 1108.36 429.069C1163.91 412.468 1175.4 415.022 1174.12 439.924C1172.85 464.825 1146.03 595.079 1128.15 628.281C1110.27 661.483 1087.92 722.141 1088.56 733.634C1089.2 745.127 1110.91 778.967 1130.07 791.099C1149.22 803.23 1147.31 817.916 1135.17 820.47C1123.04 823.024 1109 827.493 1067.49 800.676C1025.99 773.859 1008.75 735.549 1011.3 725.972C1013.86 716.394 1040.68 703.624 1051.53 684.469C1062.38 665.314 1080.26 593.802 1081.54 561.239C1082.58 540.681 1086.89 520.42 1094.31 501.22C1094.31 501.22 1024.07 513.99 1003.64 526.76L996.619 494.835Z" stroke="#08209F" stroke-linecap="round" stroke-linejoin="round"/>
<path d="M1051.53 684.469C1050.71 685.9 1049.79 687.279 1048.82 688.658C1062.03 689.902 1074.55 695.12 1084.73 703.624C1087.79 706.283 1090.71 709.105 1093.47 712.078C1102.74 683.252 1114.34 655.227 1128.15 628.281C1146.03 595.079 1172.85 464.825 1174.12 439.924C1175.4 415.022 1163.91 412.468 1108.36 429.069C1052.81 445.67 996.619 494.835 996.619 494.835L1003.64 526.76C1024.07 513.99 1094.31 501.22 1094.31 501.22C1086.89 520.42 1082.58 540.681 1081.54 561.239C1080.26 593.802 1062.38 665.314 1051.53 684.469Z" fill="white" stroke="#08209F" stroke-linecap="round" stroke-linejoin="round"/>
<path d="M1051.53 684.469C1050.71 685.9 1049.79 687.279 1048.82 688.658C1062.03 689.902 1074.55 695.12 1084.73 703.624C1087.79 706.283 1090.71 709.105 1093.47 712.078C1105.7 695.63 1119.47 643.759 1134.99 622.407C1175.12 567.266 1172.85 464.825 1174.12 439.924C1175.4 415.022 1163.91 412.468 1108.36 429.069C1052.81 445.67 996.619 494.835 996.619 494.835L1003.64 526.76C1024.07 513.99 1094.31 501.22 1094.31 501.22C1086.89 520.42 1082.58 540.681 1081.54 561.239C1080.26 593.802 1062.38 665.314 1051.53 684.469Z" fill="#08209F"/>
<path opacity="0.53" d="M1051.53 684.469C1050.71 685.9 1049.79 687.279 1048.82 688.658C1062.03 689.902 1074.55 695.12 1084.73 703.624C1087.79 706.283 1090.71 709.105 1093.47 712.078C1105.7 695.63 1119.47 643.759 1134.99 622.407C1175.12 567.266 1172.85 464.825 1174.12 439.924C1175.4 415.022 1163.91 412.468 1108.36 429.069C1052.81 445.67 996.619 494.835 996.619 494.835L1003.64 526.76C1024.07 513.99 1094.31 501.22 1094.31 501.22C1086.89 520.42 1082.58 540.681 1081.54 561.239C1080.26 593.802 1062.38 665.314 1051.53 684.469Z" fill="white"/>
<path opacity="0.14" d="M1147.13 436.552C1146.13 427.485 1047.37 469.294 1005.71 487.325C999.939 491.923 996.619 494.834 996.619 494.834L1003.64 526.759C1024.07 513.989 1094.31 501.219 1094.31 501.219C1086.89 520.419 1082.58 540.68 1081.54 561.238C1080.26 593.802 1062.38 665.314 1051.53 684.469C1050.71 685.899 1049.79 687.278 1048.82 688.657C1055.86 689.411 1062.74 691.192 1069.25 693.944C1084.55 661.304 1101.03 623.326 1108.82 593.623C1122.86 539.989 1148.4 448.045 1147.13 436.552Z" fill="#08209F"/>
<path d="M1094.31 501.22C1094.31 501.22 1113.47 462.271 1130.07 446.309" stroke="#08209F" stroke-linecap="round" stroke-linejoin="round"/>
<path d="M1051.53 684.469C1050.71 685.9 1049.79 687.279 1048.82 688.658C1062.03 689.902 1074.55 695.12 1084.73 703.624C1087.79 706.283 1090.71 709.105 1093.47 712.078C1105.7 695.63 1119.47 643.759 1134.99 622.407C1175.12 567.266 1172.85 464.825 1174.12 439.924C1175.4 415.022 1163.91 412.468 1108.36 429.069C1052.81 445.67 996.619 494.835 996.619 494.835L1003.64 526.76C1024.07 513.99 1094.31 501.22 1094.31 501.22C1086.89 520.42 1082.58 540.681 1081.54 561.239C1080.26 593.802 1062.38 665.314 1051.53 684.469Z" stroke="#08209F" stroke-linecap="round" stroke-linejoin="round"/>
<path d="M912.438 546.374C933.006 545.436 953.339 541.61 972.84 535.009C1001.73 524.487 949.19 505.229 929.065 515.752C923.441 518.479 918.813 522.899 915.831 528.392C912.849 533.884 911.663 540.173 912.438 546.374Z" fill="#08209F" stroke="#08209F" stroke-linecap="round" stroke-linejoin="round"/>
<path d="M829.331 505.05C829.331 505.05 808.899 516.543 801.875 529.313C794.852 542.083 825.065 563.357 856.99 562.08C888.915 560.803 947.453 526.12 947.453 526.12C947.453 526.12 948.092 582.308 958.946 602.74C969.801 623.172 1019.6 672.975 1039.4 685.745C1059.19 698.515 1125.59 746.403 1135.81 754.065C1146.03 761.727 1165.18 775.774 1169.65 776.412C1174.12 777.051 1220.73 720.224 1231.59 701.069C1242.44 681.914 1252.02 641.689 1248.19 632.75C1244.36 623.811 1236.69 631.473 1229.03 637.858C1221.37 644.243 1151.13 690.853 1144.75 694.046C1141.26 695.836 1137.63 697.332 1133.9 698.515C1133.9 698.515 1076.43 643.604 1045.78 601.463C1015.13 559.322 1012.58 505.05 1001.09 484.618C989.594 464.186 972.993 455.247 948.092 457.801C923.19 460.355 871.472 473.763 829.331 505.05Z" fill="white"/>
<path d="M1099.49 727.708C1116.55 739.916 1131.39 750.694 1135.81 754.014C1146.03 761.676 1165.18 775.723 1169.65 776.362C1171.24 776.591 1178.13 769.568 1186.84 759.582L1113.72 712.537L1099.49 727.708Z" fill="#CCDFFB"/>
<path opacity="0.5" d="M1099.49 727.708C1116.55 739.916 1131.39 750.694 1135.81 754.014C1146.03 761.676 1165.18 775.723 1169.65 776.362C1171.24 776.591 1178.13 769.568 1186.84 759.582L1113.72 712.537L1099.49 727.708Z" fill="white"/>
<path d="M829.331 505.05C829.331 505.05 808.899 516.543 801.875 529.313C794.852 542.083 825.065 563.357 856.99 562.08C888.915 560.803 947.453 526.12 947.453 526.12C947.453 526.12 948.092 582.308 958.946 602.74C969.801 623.172 1019.6 672.975 1039.4 685.745C1059.19 698.515 1125.59 746.403 1135.81 754.065C1146.03 761.727 1165.18 775.774 1169.65 776.412C1174.12 777.051 1220.73 720.224 1231.59 701.069C1242.44 681.914 1252.02 641.689 1248.19 632.75C1244.36 623.811 1236.69 631.473 1229.03 637.858C1221.37 644.243 1151.13 690.853 1144.75 694.046C1141.26 695.836 1137.63 697.332 1133.9 698.515C1133.9 698.515 1076.43 643.604 1045.78 601.463C1015.13 559.322 1012.58 505.05 1001.09 484.618C989.594 464.186 972.993 455.247 948.092 457.801C923.19 460.355 871.472 473.763 829.331 505.05Z" stroke="#08209F" stroke-linecap="round" stroke-linejoin="round"/>
<path d="M1129.94 694.685C1116.43 681.506 1065.78 613.544 1045.78 574.468C1016.49 517.207 1013.32 497.695 1001.83 477.263C990.336 456.831 972.995 455.247 948.195 457.801C923.396 460.355 878.726 464.978 824.071 495.984C824.071 495.984 801.085 508.447 794.087 521.217C787.089 533.987 812.654 566.142 857.094 562.081C888.917 559.17 947.557 526.121 947.557 526.121C947.557 526.121 948.195 582.309 959.05 602.741C969.904 623.173 1019.71 672.976 1039.5 685.746C1052.04 693.842 1083.33 716.062 1107.16 733.174C1113.03 711.797 1123.58 700.099 1129.94 694.685Z" fill="#08209F"/>
<path opacity="0.53" d="M1129.94 694.685C1116.43 681.506 1065.78 613.544 1045.78 574.468C1016.49 517.207 1013.32 497.695 1001.83 477.263C990.336 456.831 972.995 455.247 948.195 457.801C923.396 460.355 878.726 464.978 824.071 495.984C824.071 495.984 801.085 508.447 794.087 521.217C787.089 533.987 812.654 566.142 857.094 562.081C888.917 559.17 947.557 526.121 947.557 526.121C947.557 526.121 948.195 582.309 959.05 602.741C969.904 623.173 1019.71 672.976 1039.5 685.746C1052.04 693.842 1083.33 716.062 1107.16 733.174C1113.03 711.797 1123.58 700.099 1129.94 694.685Z" fill="white"/>
<path opacity="0.14" d="M1001.55 603.84C982.394 555.314 993.887 458.262 940.253 471.032C901.176 480.328 829.537 513.377 793.551 530.616C797.816 545.276 821.313 565.351 856.992 562.082C888.815 559.17 947.455 526.121 947.455 526.121C947.455 526.121 948.093 582.309 958.948 602.741C969.802 623.173 1019.61 672.976 1039.4 685.746C1051.94 693.843 1083.23 716.062 1107.05 733.174C1109.11 725.699 1112.1 718.515 1115.97 711.797C1068.41 676.629 1012.25 630.938 1001.55 603.84Z" fill="#08209F"/>
<path d="M947.455 526.12L945.539 492.918" stroke="#08209F" stroke-linecap="round" stroke-linejoin="round"/>
<path d="M1129.94 694.685C1116.43 681.506 1065.78 613.544 1045.78 574.468C1016.49 517.207 1013.32 497.695 1001.83 477.263C990.336 456.831 972.995 455.247 948.195 457.801C923.396 460.355 878.726 464.978 824.071 495.984C824.071 495.984 801.085 508.447 794.087 521.217C787.089 533.987 812.654 566.142 857.094 562.081C888.917 559.17 947.557 526.121 947.557 526.121C947.557 526.121 948.195 582.309 959.05 602.741C969.904 623.173 1019.71 672.976 1039.5 685.746C1052.04 693.842 1083.33 716.062 1107.16 733.174C1113.03 711.797 1123.58 700.099 1129.94 694.685Z" stroke="#08209F" stroke-linecap="round" stroke-linejoin="round"/>
<path d="M1135.81 754.066C1146.03 761.728 1165.18 775.775 1169.65 776.413C1174.12 777.052 1220.73 720.225 1231.59 701.07C1242.44 681.915 1252.02 641.69 1248.19 632.751C1244.36 623.812 1236.69 631.474 1229.03 637.859C1221.37 644.244 1151.14 690.854 1144.75 694.047C1143.06 694.889 1141.53 695.579 1140.18 696.166C1138.34 699.665 1136.09 705.08 1137.62 708.732C1140.18 714.479 1151.03 722.141 1151.03 722.141L1131.7 751.103L1135.81 754.066Z" fill="#08209F" stroke="#08209F" stroke-linecap="round" stroke-linejoin="round"/>
<path d="M1231.59 701.07C1242.44 681.915 1252.02 641.69 1248.19 632.751C1245.96 627.643 1242.47 627.975 1238.41 630.478C1241.09 642.405 1238.41 665.416 1225.2 690.216C1213.43 712.333 1177.06 751.512 1158.8 770.462C1162.12 772.965 1165.8 774.97 1169.7 776.413C1174.12 777.052 1220.73 720.225 1231.59 701.07Z" fill="white"/>
<path d="M1170.29 776.235L1170.85 775.954L1171.01 775.826C1171.31 775.65 1171.61 775.445 1171.87 775.213L1172.18 774.958L1172.92 774.345L1173.33 773.962L1174.33 773.042L1174.94 772.455L1175.78 771.638L1176.5 770.922L1177.21 770.207L1179.03 768.292L1179.33 767.985L1180.46 766.759L1180.92 766.274C1182.24 764.818 1183.67 763.235 1185.16 761.549V761.422L1186.74 759.634L1175.58 752.457C1169.24 759.353 1163.34 765.585 1158.64 770.463L1160.36 771.586L1160.61 771.74L1162.19 772.736L1164.75 774.192L1165.46 774.6L1166.18 774.983L1167 775.392L1167.53 775.647C1167.79 775.775 1168.05 775.886 1168.32 775.979L1168.71 776.133C1169 776.255 1169.31 776.341 1169.63 776.388C1169.79 776.429 1169.95 776.429 1170.11 776.388L1170.29 776.235Z" fill="#CCDFFB"/>
<path opacity="0.5" d="M1170.29 776.235L1170.85 775.954L1171.01 775.826C1171.31 775.65 1171.61 775.445 1171.87 775.213L1172.18 774.958L1172.92 774.345L1173.33 773.962L1174.33 773.042L1174.94 772.455L1175.78 771.638L1176.5 770.922L1177.21 770.207L1179.03 768.292L1179.33 767.985L1180.46 766.759L1180.92 766.274C1182.24 764.818 1183.67 763.235 1185.16 761.549V761.422L1186.74 759.634L1175.58 752.457C1169.24 759.353 1163.34 765.585 1158.64 770.463L1160.36 771.586L1160.61 771.74L1162.19 772.736L1164.75 774.192L1165.46 774.6L1166.18 774.983L1167 775.392L1167.53 775.647C1167.79 775.775 1168.05 775.886 1168.32 775.979L1168.71 776.133C1169 776.255 1169.31 776.341 1169.63 776.388C1169.79 776.429 1169.95 776.429 1170.11 776.388L1170.29 776.235Z" fill="white"/>
<path d="M1231.59 701.07C1242.44 681.915 1252.02 641.69 1248.19 632.751C1245.96 627.643 1242.47 627.975 1238.41 630.478C1241.09 642.405 1238.41 665.416 1225.2 690.216C1213.43 712.333 1177.06 751.512 1158.8 770.462C1162.12 772.965 1165.8 774.97 1169.7 776.413C1174.12 777.052 1220.73 720.225 1231.59 701.07Z" stroke="#08209F" stroke-linecap="round" stroke-linejoin="round"/>
<path d="M1130.07 791.098C1110.91 778.966 1089.2 745.126 1088.56 733.633C1088.54 732.374 1088.64 731.116 1088.87 729.878C1085.06 730 1081.38 731.312 1078.35 733.633C1070.49 726.5 1062.17 719.888 1053.45 713.839C1046.42 709.794 1038.55 707.441 1030.46 706.969C1021.19 714.631 1012.58 720.76 1011.23 725.971C1008.67 735.548 1025.91 773.858 1067.42 800.675C1108.92 827.492 1122.97 823.023 1135.1 820.469C1147.23 817.915 1149.22 803.229 1130.07 791.098Z" fill="#08209F" stroke="#08209F" stroke-linecap="round" stroke-linejoin="round"/>
<path d="M1130.07 791.098C1123.72 786.796 1117.99 781.639 1113.06 775.774C1099.88 770.155 1082.28 763.004 1066.85 753.401C1050.25 743.185 1054.08 736.8 1044.51 727.223C1037.15 719.867 1022.7 718.922 1016.41 718.871C1014.14 720.765 1012.39 723.197 1011.3 725.946C1008.75 735.523 1025.99 773.833 1067.49 800.65C1109 827.467 1123.04 822.998 1135.17 820.444C1147.31 817.89 1149.22 803.23 1130.07 791.098Z" fill="white"/>
<path d="M1130.07 791.098C1123.72 786.796 1117.99 781.639 1113.06 775.774C1099.88 770.155 1082.28 763.004 1066.85 753.401C1050.25 743.185 1054.08 736.8 1044.51 727.223C1037.15 719.867 1022.7 718.922 1016.41 718.871C1014.14 720.765 1012.39 723.197 1011.3 725.946C1008.75 735.523 1025.99 773.833 1067.49 800.65C1109 827.467 1123.04 822.998 1135.17 820.444C1147.31 817.89 1149.22 803.23 1130.07 791.098Z" fill="#CCDFFB"/>
<path opacity="0.5" d="M1130.07 791.098C1123.72 786.796 1117.99 781.639 1113.06 775.774C1099.88 770.155 1082.28 763.004 1066.85 753.401C1050.25 743.185 1054.08 736.8 1044.51 727.223C1037.15 719.867 1022.7 718.922 1016.41 718.871C1014.14 720.765 1012.39 723.197 1011.3 725.946C1008.75 735.523 1025.99 773.833 1067.49 800.65C1109 827.467 1123.04 822.998 1135.17 820.444C1147.31 817.89 1149.22 803.23 1130.07 791.098Z" fill="white"/>
<path d="M1130.07 791.098C1123.72 786.796 1117.99 781.64 1113.06 775.774C1099.88 770.155 1082.28 763.004 1066.85 753.401C1050.25 743.185 1054.08 736.8 1044.51 727.223C1037.15 719.867 1022.7 718.922 1016.41 718.871C1014.14 720.765 1012.39 723.197 1011.3 725.946C1008.75 735.523 1025.99 773.833 1067.49 800.65C1109 827.467 1123.04 822.998 1135.17 820.444C1147.31 817.89 1149.22 803.23 1130.07 791.098Z" stroke="#08209F" stroke-linecap="round" stroke-linejoin="round"/>
<path d="M1133.26 795.567C1116.66 785.99 1082.82 779.605 1061.11 764.919C1039.4 750.234 1045.14 737.464 1029.18 727.248C1026.63 725.341 1023.58 724.228 1020.4 724.046C1017.22 723.864 1014.06 724.623 1011.3 726.226C1009.08 736.187 1026.37 774.063 1067.49 800.675C1108.61 827.288 1123.04 823.023 1135.17 820.469C1143.24 818.758 1146.74 811.709 1142.58 803.613C1139.97 800.399 1136.82 797.674 1133.26 795.567Z" fill="#08209F"/>
<path opacity="0.53" d="M1133.26 795.567C1116.66 785.99 1082.82 779.605 1061.11 764.919C1039.4 750.234 1045.14 737.464 1029.18 727.248C1026.63 725.341 1023.58 724.228 1020.4 724.046C1017.22 723.864 1014.06 724.623 1011.3 726.226C1009.08 736.187 1026.37 774.063 1067.49 800.675C1108.61 827.288 1123.04 823.023 1135.17 820.469C1143.24 818.758 1146.74 811.709 1142.58 803.613C1139.97 800.399 1136.82 797.674 1133.26 795.567Z" fill="white"/>
<path d="M1133.26 795.567C1116.66 785.99 1082.82 779.605 1061.11 764.919C1039.4 750.234 1045.14 737.464 1029.18 727.248C1026.63 725.341 1023.58 724.228 1020.4 724.046C1017.22 723.864 1014.06 724.623 1011.3 726.226C1009.08 736.187 1026.37 774.063 1067.49 800.675C1108.61 827.288 1123.04 823.023 1135.17 820.469C1143.24 818.758 1146.74 811.709 1142.58 803.613C1139.97 800.399 1136.82 797.674 1133.26 795.567V795.567Z" stroke="#08209F" stroke-linecap="round" stroke-linejoin="round"/>
<path d="M815.081 673.435C815.081 673.435 827.34 658.545 829.076 669.936C830.813 681.327 828.208 702.321 819.448 710.187C810.688 718.053 806.32 705.82 806.32 705.82L811.582 698.822C811.582 698.822 815.949 707.582 819.448 693.56C822.947 679.539 812.45 681.301 812.45 681.301L815.081 673.435Z" fill="white" stroke="#08209F" stroke-linecap="round" stroke-linejoin="round"/>
<path d="M805.707 729.47C798.454 734.833 774.804 734.833 767.576 729.47C752.252 718.104 754.806 663.193 754.806 663.193H818.299C818.299 663.193 821.057 718.104 805.707 729.47Z" fill="white" stroke="#08209F" stroke-linecap="round" stroke-linejoin="round"/>
<path d="M761.752 652.416C761.752 645.52 768.162 645.52 768.162 638.599C768.162 631.678 761.752 631.678 761.752 624.782C761.752 617.886 768.162 617.861 768.162 610.939C768.162 604.018 761.752 604.018 761.752 597.097C761.752 590.175 768.162 590.175 768.162 583.254" stroke="#08209F" stroke-linecap="round" stroke-linejoin="round"/>
<path d="M783.691 652.416C783.691 647.308 790.102 647.309 790.102 641.92C790.102 636.531 783.691 636.684 783.691 631.423C783.691 626.161 790.102 626.187 790.102 620.926C790.102 615.664 783.691 615.664 783.691 610.403C783.691 605.142 790.102 605.167 790.102 599.906" stroke="#08209F" stroke-linecap="round" stroke-linejoin="round"/>
<path d="M807.826 652.416C807.826 645.52 814.211 645.52 814.211 638.599C814.211 631.678 807.826 631.678 807.826 624.782C807.826 617.886 814.211 617.861 814.211 610.939C814.211 604.018 807.826 604.018 807.826 597.097C807.826 590.175 814.211 590.175 814.211 583.254" stroke="#08209F" stroke-linecap="round" stroke-linejoin="round"/>
<path d="M818.35 663.195C818.35 664.804 804.15 666.081 786.604 666.081C769.058 666.081 754.857 664.804 754.857 663.195C754.857 661.586 769.058 660.309 786.604 660.309C804.15 660.309 818.35 661.586 818.35 663.195Z" fill="white" stroke="#08209F" stroke-linecap="round" stroke-linejoin="round"/>
<path d="M876.963 267.989C876.963 267.989 879.951 300.246 881.203 310.436C882.454 320.626 885.289 349.895 888.226 359.575C891.163 369.255 907.177 386.085 908.658 382.203C910.139 378.321 918.108 351.99 914.941 336.231C911.774 320.473 910.803 307.014 912.77 303.029C914.737 299.045 921.811 294.576 921.811 294.576C913.571 290.355 905.565 285.691 897.829 280.605C886.54 273.097 878.546 264.592 876.963 267.989Z" fill="white"/>
<path d="M917.956 296.312L915.402 291.357C910.703 288.803 904.165 285.023 897.958 280.86C886.593 273.198 878.599 264.591 877.016 268.09C877.016 268.09 880.004 300.348 881.255 310.538C882.507 320.728 885.342 349.997 888.279 359.677C889.281 362.508 890.664 365.189 892.391 367.645C889.3 348.388 892.646 313.603 892.646 313.603L917.956 296.312Z" fill="#CCDFFB"/>
<path opacity="0.5" d="M917.956 296.312L915.402 291.357C910.703 288.803 904.165 285.023 897.958 280.86C886.593 273.198 878.599 264.591 877.016 268.09C877.016 268.09 880.004 300.348 881.255 310.538C882.507 320.728 885.342 349.997 888.279 359.677C889.281 362.508 890.664 365.189 892.391 367.645C889.3 348.388 892.646 313.603 892.646 313.603L917.956 296.312Z" fill="white"/>
<path d="M876.963 267.989C876.963 267.989 879.951 300.246 881.203 310.436C882.454 320.626 885.289 349.895 888.226 359.575C891.163 369.255 907.177 386.085 908.658 382.203C910.139 378.321 918.108 351.99 914.941 336.231C911.774 320.473 910.803 307.014 912.77 303.029C914.737 299.045 921.811 294.576 921.811 294.576C913.571 290.355 905.565 285.691 897.829 280.605C886.54 273.097 878.546 264.592 876.963 267.989Z" stroke="#08209F" stroke-linecap="round" stroke-linejoin="round"/>
<path d="M875.789 272.662C875.789 272.662 894.178 287.986 908.276 293.605C922.374 299.224 944.032 298.867 947.123 291.537C950.213 284.207 941.759 226.154 934.48 210.881C927.201 195.608 919.437 195.353 906.591 194.178C893.744 193.003 868.051 203.475 863.53 215.887C859.01 228.3 864.169 245.871 867.898 256.291C869.869 262.042 872.519 267.538 875.789 272.662Z" fill="white"/>
<path d="M908.811 271.971C902.298 252.663 900.664 222.27 900.664 214.174C900.664 207.917 916.958 201.047 924.391 198.237C919.512 195.224 913.843 194.841 906.513 194.176C893.743 193.027 867.973 203.473 863.452 215.885C858.932 228.298 864.091 245.869 867.819 256.29C869.791 262.041 872.441 267.536 875.711 272.661C875.711 272.661 894.1 287.985 908.198 293.604C917.969 297.301 928.551 298.315 938.846 296.541C928.758 292.735 913.153 284.869 908.811 271.971Z" fill="#CCDFFB"/>
<path opacity="0.5" d="M908.811 271.971C902.298 252.663 900.664 222.27 900.664 214.174C900.664 207.917 916.958 201.047 924.391 198.237C919.512 195.224 913.843 194.841 906.513 194.176C893.743 193.027 867.973 203.473 863.452 215.885C858.932 228.298 864.091 245.869 867.819 256.29C869.791 262.041 872.441 267.536 875.711 272.661C875.711 272.661 894.1 287.985 908.198 293.604C917.969 297.301 928.551 298.315 938.846 296.541C928.758 292.735 913.153 284.869 908.811 271.971Z" fill="white"/>
<path d="M875.789 272.662C875.789 272.662 894.178 287.986 908.276 293.605C922.374 299.224 944.032 298.867 947.123 291.537C950.213 284.207 941.759 226.154 934.48 210.881C927.201 195.608 919.437 195.353 906.591 194.178C893.744 193.003 868.051 203.475 863.53 215.887C859.01 228.3 864.169 245.871 867.898 256.291C869.869 262.042 872.519 267.538 875.789 272.662V272.662Z" stroke="#08209F" stroke-linecap="round" stroke-linejoin="round"/>
<path d="M935.859 234.786C936.165 242.142 931.543 248.297 925.643 248.527C919.743 248.757 914.584 243.01 914.303 235.757C914.022 228.503 918.619 222.246 924.519 221.991C930.419 221.735 935.578 227.354 935.859 234.786Z" stroke="#08209F" stroke-linecap="round" stroke-linejoin="round"/>
<path d="M950.315 231.926C950.622 239.282 948.247 245.335 945.028 245.463C941.81 245.59 938.95 239.742 938.669 232.386C938.388 225.031 940.763 218.952 943.981 218.824C947.199 218.697 950.034 224.571 950.315 231.926Z" stroke="#08209F" stroke-linecap="round" stroke-linejoin="round"/>
<path d="M936.625 232.078C936.625 232.078 957.721 236.088 955.678 241.17C953.635 246.253 939.383 251.744 939.383 251.744" fill="white"/>
<path d="M936.625 232.078C936.625 232.078 957.721 236.088 955.678 241.17C953.635 246.253 939.383 251.744 939.383 251.744" stroke="#08209F" stroke-linecap="round" stroke-linejoin="round"/>
<path d="M935.322 229.678C935.322 229.678 935.629 227.124 938.872 228.733" stroke="#08209F" stroke-linecap="round" stroke-linejoin="round"/>
<path d="M913.638 236.777L875.277 251.871" stroke="#08209F" stroke-linecap="round" stroke-linejoin="round"/>
<path d="M914.15 224.366C914.958 222.54 916.308 221.007 918.017 219.975C919.725 218.942 921.71 218.46 923.702 218.594" stroke="#08209F" stroke-width="2" stroke-linecap="round" stroke-linejoin="round"/>
<path d="M939.691 218.771L933.791 220.993" stroke="#08209F" stroke-width="2" stroke-linecap="round" stroke-linejoin="round"/>
<path d="M921.455 263.722C921.455 263.722 929.117 265.714 933.459 261.168" stroke="#08209F" stroke-linecap="round" stroke-linejoin="round"/>
<path d="M926.384 236.114C926.741 238.668 926.384 240.864 925.336 240.992C924.289 241.119 923.37 239.153 923.012 236.573C922.655 233.994 923.14 231.848 924.085 231.721C925.03 231.593 926.052 233.56 926.384 236.114Z" fill="#08209F"/>
<path d="M878.854 251.974C878.854 251.974 876.3 257.082 883.502 257.338C890.704 257.593 895.608 254.094 892.109 249.676C888.61 245.257 883.425 241.12 888.763 235.348C894.101 229.576 904.47 224.723 898.647 218.287C892.824 211.851 871.396 217.7 876.759 212.49C882.123 207.279 906.896 201.839 918.032 202.529C929.167 203.219 949.957 194.586 954.529 183.297C959.1 172.009 952.715 151.143 937.749 152.266C922.782 153.39 911.621 166.645 904.981 167.59C898.341 168.535 884.728 161.154 873.311 167.59C861.895 174.026 861.512 192.517 860.541 194.79C859.571 197.063 844.094 200.435 841.361 216.091C840.335 222.403 840.773 228.866 842.642 234.981C844.511 241.097 847.76 246.701 852.139 251.361C858.549 258.334 861.435 260.99 861.435 260.99L878.854 251.974Z" fill="#08209F" stroke="#08209F" stroke-linecap="round" stroke-linejoin="round"/>
<path d="M846.367 223.676C846.233 226.052 846.802 228.414 848.001 230.469" stroke="white" stroke-width="0.75" stroke-linecap="round" stroke-linejoin="round"/>
<path d="M911.468 183.247C911.468 183.247 905.9 171.064 920.1 171.064C934.3 171.064 936.344 188.942 921.633 195.43C906.922 201.917 874.92 203.551 857.655 211.188C854.267 212.514 851.252 214.644 848.869 217.394" stroke="white" stroke-width="0.75" stroke-linecap="round" stroke-linejoin="round"/>
<path d="M885.75 226.512C880.642 228.351 874.028 230.905 867.31 234.02C853.085 240.635 856.124 247.225 856.124 247.225" stroke="white" stroke-width="0.75" stroke-linecap="round" stroke-linejoin="round"/>
<path d="M895.225 223.369C895.225 223.369 893.973 223.727 891.854 224.416" stroke="white" stroke-width="0.75" stroke-linecap="round" stroke-linejoin="round"/>
<path d="M881.28 257.44C881.28 257.44 873.03 245.538 864.347 250.314C855.663 255.09 862.406 272.074 867.641 277.974C872.877 283.874 882.965 272.866 884.012 270.108" fill="white"/>
<path d="M881.28 257.44C881.28 257.44 873.03 245.538 864.347 250.314C855.663 255.09 862.406 272.074 867.641 277.974C872.877 283.874 882.965 272.866 884.012 270.108" fill="#CCDFFB"/>
<path opacity="0.5" d="M881.28 257.44C881.28 257.44 873.03 245.538 864.347 250.314C855.663 255.09 862.406 272.074 867.641 277.974C872.877 283.874 882.965 272.866 884.012 270.108" fill="white"/>
<path d="M881.28 257.44C881.28 257.44 873.03 245.538 864.347 250.314C855.663 255.09 862.406 272.074 867.641 277.974C872.877 283.874 882.965 272.866 884.012 270.108" stroke="#08209F" stroke-linecap="round" stroke-linejoin="round"/>
<path d="M777.102 246.586H594.032C586.81 246.586 580.955 252.441 580.955 259.662V393.492C580.955 400.714 586.81 406.569 594.032 406.569H777.102C784.324 406.569 790.179 400.714 790.179 393.492V259.662C790.179 252.441 784.324 246.586 777.102 246.586Z" fill="white" stroke="#08209F" stroke-linecap="round" stroke-linejoin="round"/>
<path d="M786.195 361.668L908.787 393.593L786.195 333.574" fill="white"/>
<path d="M786.195 361.668L908.787 393.593L786.195 333.574" stroke="#08209F" stroke-linecap="round" stroke-linejoin="round"/>
<path d="M647.079 261.961H597.863V391.193H647.079V261.961Z" fill="#CCDFFB" stroke="#08209F" stroke-linecap="round" stroke-linejoin="round"/>
<path d="M779.325 261.961H773.17V391.193H779.325V261.961Z" fill="#CCDFFB" stroke="#08209F" stroke-linecap="round" stroke-linejoin="round"/>
<path d="M779.325 321.035H773.17V332.068H779.325V321.035Z" fill="#08209F" stroke="#08209F" stroke-linecap="round" stroke-linejoin="round"/>
<path d="M662.479 265.025H759.403" stroke="#08209F" stroke-linecap="round" stroke-linejoin="round"/>
<path d="M662.479 278.867H759.403" stroke="#08209F" stroke-linecap="round" stroke-linejoin="round"/>
<path d="M662.479 292.736H759.403" stroke="#08209F" stroke-linecap="round" stroke-linejoin="round"/>
<path d="M662.479 306.578H759.403" stroke="#08209F" stroke-linecap="round" stroke-linejoin="round"/>
<path d="M662.479 340.42H759.403" stroke="#08209F" stroke-linecap="round" stroke-linejoin="round"/>
<path d="M662.479 352.73H759.403" stroke="#08209F" stroke-linecap="round" stroke-linejoin="round"/>
<path d="M662.479 365.039H759.403" stroke="#08209F" stroke-linecap="round" stroke-linejoin="round"/>
<path d="M662.479 390.58H759.403" stroke="#08209F" stroke-linecap="round" stroke-linejoin="round"/>
<path d="M597.863 391.168L647.104 261.961" stroke="#08209F" stroke-linecap="round" stroke-linejoin="round"/>
<path d="M1289.64 446.205C1294.21 448.197 1305.4 447.941 1305.4 447.941C1305.4 447.941 1303 440.611 1302.84 440.279C1300.29 435.171 1292.63 426.667 1286.32 427.509C1285.28 427.697 1284.3 428.097 1283.42 428.683C1282.55 429.269 1281.8 430.029 1281.23 430.916C1280.67 431.803 1280.29 432.797 1280.12 433.837C1279.95 434.876 1280 435.939 1280.27 436.959C1281.21 441.25 1285.73 444.494 1289.64 446.205Z" fill="#08209F"/>
</g>
<defs>
<clipPath id="clip0_240_34199">
<rect width="719" height="818" fill="white" transform="translate(561 4)"/>
</clipPath>
</defs>
</svg>
