<svg width="1280" height="835" viewBox="0 0 1280 835" fill="none" xmlns="http://www.w3.org/2000/svg">
<rect width="1280" height="868" transform="translate(0 -33)" fill="#0E28AF"/>
<g clip-path="url(#clip0_1232_4942)">
<path d="M905.438 546.247V-28.25" stroke="#0050D7" stroke-linecap="round" stroke-linejoin="round"/>
<path d="M531.992 551.941H894.379L1444.95 729.649" stroke="#0050D7" stroke-linecap="round" stroke-linejoin="round"/>
<path d="M697.006 538.458H671.977V124.557H723.644L701.348 44.0801H634.433L612.137 124.557H663.804V538.458H638.698C632.279 538.463 626.118 540.986 621.538 545.485C616.959 549.983 614.326 556.098 614.205 562.517C614.205 562.517 614.205 562.644 614.205 562.695C614.205 562.695 614.205 562.849 614.205 562.9C614.946 568.672 638.647 573.32 667.839 573.32C697.032 573.32 720.733 568.672 721.473 562.9C721.453 556.419 718.868 550.21 714.283 545.63C709.698 541.05 703.487 538.471 697.006 538.458Z" fill="#001E95"/>
<path d="M879.184 294.14C879.184 294.14 812.652 286.248 768.876 320.395C725.101 354.542 687.455 497.234 688.323 565.579C689.192 633.924 714.604 668.02 778.505 696.012C842.406 724.004 961.448 713.533 1027.98 692.513C1094.51 671.494 1116.4 598.015 1115.53 558.581C1114.66 519.148 1070.89 473.661 1056 464.083C1041.11 454.506 999.094 434.329 978.1 402.787C957.106 371.245 926.433 302.9 879.184 294.14Z" fill="#00168B"/>
<path opacity="0.13" d="M1040.19 687.789C1015.03 684.392 985.2 677.573 962.623 663.858C914.94 634.921 903.038 580.419 886.003 559.987C868.968 539.555 838.32 541.266 824.707 519.123C811.094 496.979 833.212 333.549 794.059 323.333C786.113 321.038 777.887 319.86 769.617 319.834C769.387 320.038 769.106 320.192 768.876 320.396C725.101 354.543 687.455 497.235 688.323 565.58C689.192 633.925 714.604 668.021 778.505 696.013C842.406 724.004 961.448 713.533 1027.98 692.514C1032.14 691.194 1036.22 689.616 1040.19 687.789Z" fill="#0050D7"/>
<path d="M879.184 294.14C879.184 294.14 812.652 286.248 768.876 320.395C725.101 354.542 687.455 497.234 688.323 565.579C689.192 633.924 714.604 668.02 778.505 696.012C842.406 724.004 961.448 713.532 1027.98 692.513C1094.51 671.494 1116.4 598.015 1115.53 558.581C1114.66 519.148 1070.89 473.661 1056 464.083C1041.11 454.506 999.094 434.329 978.1 402.787C957.106 371.245 926.433 302.9 879.184 294.14Z" stroke="#0050D7" stroke-linecap="round" stroke-linejoin="round"/>
<path d="M852.98 324.993C852.98 324.993 809.562 333.293 801.9 340.955C794.238 348.617 762.312 468.655 762.312 468.655C771.188 466.494 780.499 466.937 789.13 469.932C801.9 475.04 803.177 488.449 804.454 494.834C805.479 502.459 806.118 510.13 806.369 517.82C806.369 517.82 935.423 506.301 962.878 499.942C990.334 493.582 1032.12 490.62 1032.12 490.62C1032.12 490.62 961.525 331.403 950.67 325.657C939.816 319.91 894.482 319.272 888.097 320.549C881.712 321.826 852.98 324.993 852.98 324.993Z" fill="#0050D7" stroke="#0050D7" stroke-linecap="round" stroke-linejoin="round"/>
<path d="M810.199 472.486L821.054 383.734" stroke="#EDF5FF" stroke-linecap="round" stroke-linejoin="round"/>
<path d="M818.5 407.36L833.186 388.205" stroke="#EDF5FF" stroke-linecap="round" stroke-linejoin="round"/>
<path d="M862.557 418.852C862.557 418.852 904.059 405.443 931.515 405.443" stroke="#EDF5FF" stroke-linecap="round" stroke-linejoin="round"/>
<path d="M901.735 382.254L898.951 403.529C898.951 403.529 905.975 403.529 906.613 406.721C906.657 407.905 906.452 409.085 906.013 410.184C905.573 411.284 904.907 412.279 904.059 413.106C904.059 413.106 923.853 423.961 926.407 436.731" stroke="#EDF5FF" stroke-linecap="round" stroke-linejoin="round"/>
<path d="M876.808 301.19C876.808 301.19 852.979 308.852 849.556 314.803C846.134 320.754 848.714 362.486 848.714 367.594C848.714 372.702 851.702 364.606 854.256 358.655C856.81 352.704 865.749 343.74 868.711 344.608C871.674 345.477 873.411 348.848 873.411 354.39C873.411 359.932 880.204 367.594 886.181 371.834C892.157 376.073 897.674 380.364 897.674 380.364C897.674 380.364 910.01 362.486 912.998 357.787C915.986 353.087 915.552 343.331 915.96 339.909C916.369 336.486 924.057 349.282 925.768 345.885C927.479 342.488 921.937 339.5 915.96 330.127C909.984 320.754 911.721 310.972 902.782 304.153C893.843 297.334 883.627 299.453 876.808 301.19Z" fill="#EDF5FF"/>
<path d="M849.557 314.777C847.309 318.761 847.667 338.631 848.177 353.087C853.617 346.089 864.83 332.859 871.317 335.362C879.592 338.554 882.759 362.077 882.759 362.077L877.165 301.189H876.808C876.808 301.189 852.979 308.851 849.557 314.777Z" fill="#00168B"/>
<path opacity="0.5" d="M849.557 314.777C847.309 318.761 847.667 338.631 848.177 353.087C853.617 346.089 864.83 332.859 871.317 335.362C879.592 338.554 882.759 362.077 882.759 362.077L877.165 301.189H876.808C876.808 301.189 852.979 308.851 849.557 314.777Z" fill="#EDF5FF"/>
<path d="M876.808 301.19C876.808 301.19 852.979 308.852 849.556 314.803C846.134 320.754 848.714 362.486 848.714 367.594C848.714 372.702 851.702 364.606 854.256 358.655C856.81 352.704 865.749 343.74 868.711 344.608C871.674 345.477 873.411 348.848 873.411 354.39C873.411 359.932 880.204 367.594 886.181 371.834C892.157 376.073 897.674 380.364 897.674 380.364C897.674 380.364 910.01 362.486 912.998 357.787C915.986 353.087 915.552 343.331 915.96 339.909C916.369 336.486 924.057 349.282 925.768 345.885C927.479 342.488 921.937 339.5 915.96 330.127C909.984 320.754 911.721 310.972 902.782 304.153C893.843 297.334 883.627 299.453 876.808 301.19Z" stroke="#0050D7" stroke-linecap="round" stroke-linejoin="round"/>
<path d="M820.417 473.765C820.417 473.765 805.732 452.694 787.854 450.779C769.976 448.863 748.267 463.549 747.628 468.657C746.99 473.765 742.52 501.22 745.713 505.051C748.905 508.882 761.037 512.075 784.661 504.413C808.286 496.751 817.863 487.173 820.417 473.765Z" fill="#EDF5FF"/>
<path d="M760.679 504.387C760.679 504.387 755.571 489.778 758.125 484.696C760.679 479.613 770.895 471.926 777.203 464.264C783.512 456.602 762.314 468.58 761.292 464.264C760.5 460.79 772.504 453.843 777.229 451.264C762.365 454.124 748.139 464.468 747.628 468.58C746.99 473.688 742.52 501.143 745.713 504.974C747.347 506.941 751.408 508.754 758.176 508.984C759.708 506.353 760.679 504.387 760.679 504.387Z" fill="#00168B"/>
<path opacity="0.5" d="M760.679 504.387C760.679 504.387 755.571 489.778 758.125 484.696C760.679 479.613 770.895 471.926 777.203 464.264C783.512 456.602 762.314 468.58 761.292 464.264C760.5 460.79 772.504 453.843 777.229 451.264C762.365 454.124 748.139 464.468 747.628 468.58C746.99 473.688 742.52 501.143 745.713 504.974C747.347 506.941 751.408 508.754 758.176 508.984C759.708 506.353 760.679 504.387 760.679 504.387Z" fill="#EDF5FF"/>
<path d="M820.417 473.765C820.417 473.765 805.732 452.694 787.854 450.779C769.976 448.863 748.267 463.549 747.628 468.657C746.99 473.765 742.52 501.22 745.713 505.051C748.905 508.882 761.037 512.075 784.661 504.413C808.286 496.751 817.863 487.173 820.417 473.765Z" stroke="#0050D7" stroke-linecap="round" stroke-linejoin="round"/>
<path d="M770.613 479.51C770.613 479.51 746.656 489.011 745.711 507.604C745.175 517.82 762.312 522.29 780.19 522.29C798.068 522.29 823.608 499.942 840.209 490.365C856.81 480.787 895.12 458.44 899.59 456.524C904.059 454.609 919.383 459.717 925.768 461.632C931.854 462.936 938.062 463.578 944.285 463.548C944.285 463.548 953.224 477.595 957.693 477.595C962.163 477.595 948.116 456.524 946.2 452.055C944.285 447.585 912.998 437.369 909.167 437.369C905.336 437.369 815.946 459.717 802.538 464.825C789.129 469.933 770.613 479.51 770.613 479.51Z" fill="#EDF5FF"/>
<path d="M820.697 476.854C857.194 458.593 909.167 437.369 909.167 437.369C905.336 437.369 815.946 459.717 802.538 464.825C789.129 469.933 770.613 479.51 770.613 479.51C770.613 479.51 746.656 489.011 745.711 507.604C745.175 517.82 762.312 522.29 780.19 522.29C798.068 522.29 823.608 499.942 840.209 490.365L850.272 484.542C825.882 487.632 793.267 490.543 820.697 476.854Z" fill="#00168B"/>
<path opacity="0.5" d="M820.697 476.854C857.194 458.593 909.167 437.369 909.167 437.369C905.336 437.369 815.946 459.717 802.538 464.825C789.129 469.933 770.613 479.51 770.613 479.51C770.613 479.51 746.656 489.011 745.711 507.604C745.175 517.82 762.312 522.29 780.19 522.29C798.068 522.29 823.608 499.942 840.209 490.365L850.272 484.542C825.882 487.632 793.267 490.543 820.697 476.854Z" fill="#EDF5FF"/>
<path d="M770.613 479.51C770.613 479.51 746.656 489.011 745.711 507.604C745.175 517.82 762.312 522.29 780.19 522.29C798.068 522.29 823.608 499.942 840.209 490.365C856.81 480.787 895.12 458.44 899.59 456.524C904.059 454.609 919.383 459.717 925.768 461.632C931.854 462.936 938.062 463.578 944.285 463.548C944.285 463.548 953.224 477.595 957.693 477.595C962.163 477.595 948.116 456.524 946.2 452.055C944.285 447.585 912.998 437.369 909.167 437.369C905.336 437.369 815.946 459.717 802.538 464.825C789.129 469.933 770.613 479.51 770.613 479.51Z" stroke="#0050D7" stroke-linecap="round" stroke-linejoin="round"/>
<path d="M957.362 337.509L937.9 446.948L1078.37 447.586L1099.26 343.792C1099.44 342.876 1099.41 341.933 1099.18 341.029C1098.96 340.124 1098.54 339.279 1097.96 338.551C1097.38 337.823 1096.64 337.23 1095.81 336.812C1094.98 336.394 1094.06 336.161 1093.13 336.13L963.9 332.248C962.361 332.197 960.855 332.701 959.656 333.666C958.456 334.631 957.642 335.995 957.362 337.509Z" fill="#EDF5FF" stroke="#0050D7" stroke-linecap="round" stroke-linejoin="round"/>
<path d="M937.9 446.947L869.504 495.32L1025.94 490.851L1078.37 447.586L937.9 446.947Z" fill="#EDF5FF"/>
<path d="M937.9 446.947L869.504 495.32L1025.94 490.851L1078.37 447.586L937.9 446.947Z" fill="#00168B"/>
<path opacity="0.5" d="M937.9 446.947L869.504 495.32L1025.94 490.851L1078.37 447.586L937.9 446.947Z" fill="#EDF5FF"/>
<path d="M937.9 446.947L869.504 495.32L1025.94 490.851L1078.37 447.586L937.9 446.947Z" stroke="#0050D7" stroke-linecap="round" stroke-linejoin="round"/>
<path d="M989.619 494.835C989.619 494.835 1045.81 445.67 1101.36 429.069C1156.91 412.468 1168.4 415.022 1167.12 439.924C1165.85 464.825 1139.03 595.079 1121.15 628.281C1103.27 661.483 1080.92 722.141 1081.56 733.634C1082.2 745.127 1103.91 778.967 1123.07 791.099C1142.22 803.23 1140.31 817.916 1128.17 820.47C1116.04 823.024 1102 827.493 1060.49 800.676C1018.99 773.859 1001.75 735.549 1004.3 725.972C1006.86 716.394 1033.68 703.624 1044.53 684.469C1055.38 665.314 1073.26 593.802 1074.54 561.239C1075.58 540.681 1079.89 520.42 1087.31 501.22C1087.31 501.22 1017.07 513.99 996.643 526.76L989.619 494.835Z" fill="#EDF5FF"/>
<path d="M989.619 494.835C989.619 494.835 1045.81 445.67 1101.36 429.069C1156.91 412.468 1168.4 415.022 1167.12 439.924C1165.85 464.825 1139.03 595.079 1121.15 628.281C1103.27 661.483 1080.92 722.141 1081.56 733.634C1082.2 745.127 1103.91 778.967 1123.07 791.099C1142.22 803.23 1140.31 817.916 1128.17 820.47C1116.04 823.024 1102 827.493 1060.49 800.676C1018.99 773.859 1001.75 735.549 1004.3 725.972C1006.86 716.394 1033.68 703.624 1044.53 684.469C1055.38 665.314 1073.26 593.802 1074.54 561.239C1075.58 540.681 1079.89 520.42 1087.31 501.22C1087.31 501.22 1017.07 513.99 996.643 526.76L989.619 494.835Z" fill="#00168B"/>
<path opacity="0.5" d="M989.619 494.835C989.619 494.835 1045.81 445.67 1101.36 429.069C1156.91 412.468 1168.4 415.022 1167.12 439.924C1165.85 464.825 1139.03 595.079 1121.15 628.281C1103.27 661.483 1080.92 722.141 1081.56 733.634C1082.2 745.127 1103.91 778.967 1123.07 791.099C1142.22 803.23 1140.31 817.916 1128.17 820.47C1116.04 823.024 1102 827.493 1060.49 800.676C1018.99 773.859 1001.75 735.549 1004.3 725.972C1006.86 716.394 1033.68 703.624 1044.53 684.469C1055.38 665.314 1073.26 593.802 1074.54 561.239C1075.58 540.681 1079.89 520.42 1087.31 501.22C1087.31 501.22 1017.07 513.99 996.643 526.76L989.619 494.835Z" fill="#EDF5FF"/>
<path d="M989.619 494.835C989.619 494.835 1045.81 445.67 1101.36 429.069C1156.91 412.468 1168.4 415.022 1167.12 439.924C1165.85 464.825 1139.03 595.079 1121.15 628.281C1103.27 661.483 1080.92 722.141 1081.56 733.634C1082.2 745.127 1103.91 778.967 1123.07 791.099C1142.22 803.23 1140.31 817.916 1128.17 820.47C1116.04 823.024 1102 827.493 1060.49 800.676C1018.99 773.859 1001.75 735.549 1004.3 725.972C1006.86 716.394 1033.68 703.624 1044.53 684.469C1055.38 665.314 1073.26 593.802 1074.54 561.239C1075.58 540.681 1079.89 520.42 1087.31 501.22C1087.31 501.22 1017.07 513.99 996.643 526.76L989.619 494.835Z" stroke="#0050D7" stroke-linecap="round" stroke-linejoin="round"/>
<path d="M1044.53 684.469C1043.71 685.9 1042.79 687.279 1041.82 688.658C1055.03 689.902 1067.55 695.12 1077.73 703.624C1080.79 706.283 1083.71 709.105 1086.47 712.078C1095.74 683.252 1107.34 655.227 1121.15 628.281C1139.03 595.079 1165.85 464.825 1167.12 439.924C1168.4 415.022 1156.91 412.468 1101.36 429.069C1045.81 445.67 989.619 494.835 989.619 494.835L996.643 526.76C1017.07 513.99 1087.31 501.22 1087.31 501.22C1079.89 520.42 1075.58 540.681 1074.54 561.239C1073.26 593.802 1055.38 665.314 1044.53 684.469Z" fill="#EDF5FF" stroke="#0050D7" stroke-linecap="round" stroke-linejoin="round"/>
<path d="M1044.53 684.469C1043.71 685.9 1042.79 687.279 1041.82 688.658C1055.03 689.902 1067.55 695.12 1077.73 703.624C1080.79 706.283 1083.71 709.105 1086.47 712.078C1098.7 695.63 1112.47 643.759 1127.99 622.407C1168.12 567.266 1165.85 464.825 1167.12 439.924C1168.4 415.022 1156.91 412.468 1101.36 429.069C1045.81 445.67 989.619 494.835 989.619 494.835L996.643 526.76C1017.07 513.99 1087.31 501.22 1087.31 501.22C1079.89 520.42 1075.58 540.681 1074.54 561.239C1073.26 593.802 1055.38 665.314 1044.53 684.469Z" fill="#0050D7"/>
<path opacity="0.53" d="M1044.53 684.469C1043.71 685.9 1042.79 687.279 1041.82 688.658C1055.03 689.902 1067.55 695.12 1077.73 703.624C1080.79 706.283 1083.71 709.105 1086.47 712.078C1098.7 695.63 1112.47 643.759 1127.99 622.407C1168.12 567.266 1165.85 464.825 1167.12 439.924C1168.4 415.022 1156.91 412.468 1101.36 429.069C1045.81 445.67 989.619 494.835 989.619 494.835L996.643 526.76C1017.07 513.99 1087.31 501.22 1087.31 501.22C1079.89 520.42 1075.58 540.681 1074.54 561.239C1073.26 593.802 1055.38 665.314 1044.53 684.469Z" fill="#EDF5FF"/>
<path opacity="0.14" d="M1140.13 436.552C1139.13 427.485 1040.37 469.294 998.711 487.325C992.939 491.923 989.619 494.834 989.619 494.834L996.643 526.759C1017.07 513.989 1087.31 501.219 1087.31 501.219C1079.89 520.419 1075.58 540.68 1074.54 561.238C1073.26 593.802 1055.38 665.314 1044.53 684.469C1043.71 685.899 1042.79 687.278 1041.82 688.657C1048.86 689.411 1055.74 691.192 1062.25 693.944C1077.55 661.304 1094.03 623.326 1101.82 593.623C1115.86 539.989 1141.4 448.045 1140.13 436.552Z" fill="#0050D7"/>
<path d="M1087.31 501.22C1087.31 501.22 1106.47 462.271 1123.07 446.309" stroke="#0050D7" stroke-linecap="round" stroke-linejoin="round"/>
<path d="M1044.53 684.469C1043.71 685.9 1042.79 687.279 1041.82 688.658C1055.03 689.902 1067.55 695.12 1077.73 703.624C1080.79 706.283 1083.71 709.105 1086.47 712.078C1098.7 695.63 1112.47 643.759 1127.99 622.407C1168.12 567.266 1165.85 464.825 1167.12 439.924C1168.4 415.022 1156.91 412.468 1101.36 429.069C1045.81 445.67 989.619 494.835 989.619 494.835L996.643 526.76C1017.07 513.99 1087.31 501.22 1087.31 501.22C1079.89 520.42 1075.58 540.681 1074.54 561.239C1073.26 593.802 1055.38 665.314 1044.53 684.469Z" stroke="#0050D7" stroke-linecap="round" stroke-linejoin="round"/>
<path d="M905.438 546.374C926.006 545.436 946.339 541.61 965.84 535.009C994.726 524.487 942.19 505.229 922.065 515.752C916.441 518.479 911.813 522.899 908.831 528.392C905.849 533.884 904.663 540.173 905.438 546.374Z" fill="#0050D7" stroke="#0050D7" stroke-linecap="round" stroke-linejoin="round"/>
<path d="M822.331 505.05C822.331 505.05 801.899 516.543 794.875 529.313C787.852 542.083 818.065 563.357 849.99 562.08C881.915 560.803 940.453 526.12 940.453 526.12C940.453 526.12 941.092 582.308 951.946 602.74C962.801 623.172 1012.6 672.975 1032.4 685.745C1052.19 698.515 1118.59 746.403 1128.81 754.065C1139.03 761.727 1158.18 775.774 1162.65 776.412C1167.12 777.051 1213.73 720.224 1224.59 701.069C1235.44 681.914 1245.02 641.689 1241.19 632.75C1237.36 623.811 1229.69 631.473 1222.03 637.858C1214.37 644.243 1144.13 690.853 1137.75 694.046C1134.26 695.836 1130.63 697.332 1126.9 698.515C1126.9 698.515 1069.43 643.604 1038.78 601.463C1008.13 559.322 1005.58 505.05 994.087 484.618C982.594 464.186 965.993 455.247 941.092 457.801C916.19 460.355 864.472 473.763 822.331 505.05Z" fill="#EDF5FF"/>
<path d="M1092.49 727.708C1109.55 739.916 1124.39 750.694 1128.81 754.014C1139.03 761.676 1158.18 775.723 1162.65 776.362C1164.24 776.591 1171.13 769.568 1179.84 759.582L1106.72 712.537L1092.49 727.708Z" fill="#00168B"/>
<path opacity="0.5" d="M1092.49 727.708C1109.55 739.916 1124.39 750.694 1128.81 754.014C1139.03 761.676 1158.18 775.723 1162.65 776.362C1164.24 776.591 1171.13 769.568 1179.84 759.582L1106.72 712.537L1092.49 727.708Z" fill="#EDF5FF"/>
<path d="M822.331 505.05C822.331 505.05 801.899 516.543 794.875 529.313C787.852 542.083 818.065 563.357 849.99 562.08C881.915 560.803 940.453 526.12 940.453 526.12C940.453 526.12 941.092 582.308 951.946 602.74C962.801 623.172 1012.6 672.975 1032.4 685.745C1052.19 698.515 1118.59 746.403 1128.81 754.065C1139.03 761.727 1158.18 775.774 1162.65 776.412C1167.12 777.051 1213.73 720.224 1224.59 701.069C1235.44 681.914 1245.02 641.689 1241.19 632.75C1237.36 623.811 1229.69 631.473 1222.03 637.858C1214.37 644.243 1144.13 690.853 1137.75 694.046C1134.26 695.836 1130.63 697.332 1126.9 698.515C1126.9 698.515 1069.43 643.604 1038.78 601.463C1008.13 559.322 1005.58 505.05 994.087 484.618C982.594 464.186 965.993 455.247 941.092 457.801C916.19 460.355 864.472 473.763 822.331 505.05Z" stroke="#0050D7" stroke-linecap="round" stroke-linejoin="round"/>
<path d="M1122.94 694.685C1109.43 681.506 1058.78 613.544 1038.78 574.468C1009.49 517.207 1006.32 497.695 994.829 477.263C983.336 456.831 965.995 455.247 941.195 457.801C916.396 460.355 871.726 464.978 817.071 495.984C817.071 495.984 794.085 508.447 787.087 521.217C780.089 533.987 805.654 566.142 850.094 562.081C881.917 559.17 940.557 526.121 940.557 526.121C940.557 526.121 941.195 582.309 952.05 602.741C962.904 623.173 1012.71 672.976 1032.5 685.746C1045.04 693.842 1076.33 716.062 1100.16 733.174C1106.03 711.797 1116.58 700.099 1122.94 694.685Z" fill="#0050D7"/>
<path opacity="0.53" d="M1122.94 694.685C1109.43 681.506 1058.78 613.544 1038.78 574.468C1009.49 517.207 1006.32 497.695 994.829 477.263C983.336 456.831 965.995 455.247 941.195 457.801C916.396 460.355 871.726 464.978 817.071 495.984C817.071 495.984 794.085 508.447 787.087 521.217C780.089 533.987 805.654 566.142 850.094 562.081C881.917 559.17 940.557 526.121 940.557 526.121C940.557 526.121 941.195 582.309 952.05 602.741C962.904 623.173 1012.71 672.976 1032.5 685.746C1045.04 693.842 1076.33 716.062 1100.16 733.174C1106.03 711.797 1116.58 700.099 1122.94 694.685Z" fill="#EDF5FF"/>
<path opacity="0.14" d="M994.549 603.84C975.394 555.314 986.887 458.262 933.253 471.032C894.176 480.328 822.537 513.377 786.551 530.616C790.816 545.276 814.313 565.351 849.992 562.082C881.815 559.17 940.455 526.121 940.455 526.121C940.455 526.121 941.093 582.309 951.948 602.741C962.802 623.173 1012.61 672.976 1032.4 685.746C1044.94 693.843 1076.23 716.062 1100.05 733.174C1102.11 725.699 1105.1 718.515 1108.97 711.797C1061.41 676.629 1005.25 630.938 994.549 603.84Z" fill="#0050D7"/>
<path d="M940.455 526.12L938.539 492.918" stroke="#0050D7" stroke-linecap="round" stroke-linejoin="round"/>
<path d="M1122.94 694.685C1109.43 681.506 1058.78 613.544 1038.78 574.468C1009.49 517.207 1006.32 497.695 994.829 477.263C983.336 456.831 965.995 455.247 941.195 457.801C916.396 460.355 871.726 464.978 817.071 495.984C817.071 495.984 794.085 508.447 787.087 521.217C780.089 533.987 805.654 566.142 850.094 562.081C881.917 559.17 940.557 526.121 940.557 526.121C940.557 526.121 941.195 582.309 952.05 602.741C962.904 623.173 1012.71 672.976 1032.5 685.746C1045.04 693.842 1076.33 716.062 1100.16 733.174C1106.03 711.797 1116.58 700.099 1122.94 694.685Z" stroke="#0050D7" stroke-linecap="round" stroke-linejoin="round"/>
<path d="M1128.81 754.066C1139.03 761.728 1158.18 775.775 1162.65 776.413C1167.12 777.052 1213.73 720.225 1224.59 701.07C1235.44 681.915 1245.02 641.69 1241.19 632.751C1237.36 623.812 1229.69 631.474 1222.03 637.859C1214.37 644.244 1144.14 690.854 1137.75 694.047C1136.06 694.889 1134.53 695.579 1133.18 696.166C1131.34 699.665 1129.09 705.08 1130.62 708.732C1133.18 714.479 1144.03 722.141 1144.03 722.141L1124.7 751.103L1128.81 754.066Z" fill="#0050D7" stroke="#0050D7" stroke-linecap="round" stroke-linejoin="round"/>
<path d="M1224.59 701.07C1235.44 681.915 1245.02 641.69 1241.19 632.751C1238.96 627.643 1235.47 627.975 1231.41 630.478C1234.09 642.405 1231.41 665.416 1218.2 690.216C1206.43 712.333 1170.06 751.512 1151.8 770.462C1155.12 772.965 1158.8 774.97 1162.7 776.413C1167.12 777.052 1213.73 720.225 1224.59 701.07Z" fill="#EDF5FF"/>
<path d="M1163.29 776.235L1163.85 775.954L1164.01 775.826C1164.31 775.65 1164.61 775.445 1164.87 775.213L1165.18 774.958L1165.92 774.345L1166.33 773.962L1167.33 773.042L1167.94 772.455L1168.78 771.638L1169.5 770.922L1170.21 770.207L1172.03 768.292L1172.33 767.985L1173.46 766.759L1173.92 766.274C1175.24 764.818 1176.67 763.235 1178.16 761.549V761.422L1179.74 759.634L1168.58 752.457C1162.24 759.353 1156.34 765.585 1151.64 770.463L1153.36 771.586L1153.61 771.74L1155.19 772.736L1157.75 774.192L1158.46 774.6L1159.18 774.983L1160 775.392L1160.53 775.647C1160.79 775.775 1161.05 775.886 1161.32 775.979L1161.71 776.133C1162 776.255 1162.31 776.341 1162.63 776.388C1162.79 776.429 1162.95 776.429 1163.11 776.388L1163.29 776.235Z" fill="#00168B"/>
<path opacity="0.5" d="M1163.29 776.235L1163.85 775.954L1164.01 775.826C1164.31 775.65 1164.61 775.445 1164.87 775.213L1165.18 774.958L1165.92 774.345L1166.33 773.962L1167.33 773.042L1167.94 772.455L1168.78 771.638L1169.5 770.922L1170.21 770.207L1172.03 768.292L1172.33 767.985L1173.46 766.759L1173.92 766.274C1175.24 764.818 1176.67 763.235 1178.16 761.549V761.422L1179.74 759.634L1168.58 752.457C1162.24 759.353 1156.34 765.585 1151.64 770.463L1153.36 771.586L1153.61 771.74L1155.19 772.736L1157.75 774.192L1158.46 774.6L1159.18 774.983L1160 775.392L1160.53 775.647C1160.79 775.775 1161.05 775.886 1161.32 775.979L1161.71 776.133C1162 776.255 1162.31 776.341 1162.63 776.388C1162.79 776.429 1162.95 776.429 1163.11 776.388L1163.29 776.235Z" fill="#EDF5FF"/>
<path d="M1224.59 701.07C1235.44 681.915 1245.02 641.69 1241.19 632.751C1238.96 627.643 1235.47 627.975 1231.41 630.478C1234.09 642.405 1231.41 665.416 1218.2 690.216C1206.43 712.333 1170.06 751.512 1151.8 770.462C1155.12 772.965 1158.8 774.97 1162.7 776.413C1167.12 777.052 1213.73 720.225 1224.59 701.07Z" stroke="#0050D7" stroke-linecap="round" stroke-linejoin="round"/>
<path d="M1123.07 791.098C1103.91 778.966 1082.2 745.126 1081.56 733.633C1081.54 732.374 1081.64 731.116 1081.87 729.878C1078.06 730 1074.38 731.312 1071.35 733.633C1063.49 726.5 1055.17 719.888 1046.45 713.839C1039.42 709.794 1031.55 707.441 1023.46 706.969C1014.19 714.631 1005.58 720.76 1004.23 725.971C1001.67 735.548 1018.91 773.858 1060.42 800.675C1101.92 827.492 1115.97 823.023 1128.1 820.469C1140.23 817.915 1142.22 803.229 1123.07 791.098Z" fill="#0050D7" stroke="#0050D7" stroke-linecap="round" stroke-linejoin="round"/>
<path d="M1123.07 791.098C1116.72 786.796 1110.99 781.639 1106.06 775.774C1092.88 770.155 1075.28 763.004 1059.85 753.401C1043.25 743.185 1047.08 736.8 1037.51 727.223C1030.15 719.867 1015.7 718.922 1009.41 718.871C1007.14 720.765 1005.39 723.197 1004.3 725.946C1001.75 735.523 1018.99 773.833 1060.49 800.65C1102 827.467 1116.04 822.998 1128.17 820.444C1140.31 817.89 1142.22 803.23 1123.07 791.098Z" fill="#EDF5FF"/>
<path d="M1123.07 791.098C1116.72 786.796 1110.99 781.639 1106.06 775.774C1092.88 770.155 1075.28 763.004 1059.85 753.401C1043.25 743.185 1047.08 736.8 1037.51 727.223C1030.15 719.867 1015.7 718.922 1009.41 718.871C1007.14 720.765 1005.39 723.197 1004.3 725.946C1001.75 735.523 1018.99 773.833 1060.49 800.65C1102 827.467 1116.04 822.998 1128.17 820.444C1140.31 817.89 1142.22 803.23 1123.07 791.098Z" fill="#00168B"/>
<path opacity="0.5" d="M1123.07 791.098C1116.72 786.796 1110.99 781.639 1106.06 775.774C1092.88 770.155 1075.28 763.004 1059.85 753.401C1043.25 743.185 1047.08 736.8 1037.51 727.223C1030.15 719.867 1015.7 718.922 1009.41 718.871C1007.14 720.765 1005.39 723.197 1004.3 725.946C1001.75 735.523 1018.99 773.833 1060.49 800.65C1102 827.467 1116.04 822.998 1128.17 820.444C1140.31 817.89 1142.22 803.23 1123.07 791.098Z" fill="#EDF5FF"/>
<path d="M1123.07 791.098C1116.72 786.796 1110.99 781.64 1106.06 775.774C1092.88 770.155 1075.28 763.004 1059.85 753.401C1043.25 743.185 1047.08 736.8 1037.51 727.223C1030.15 719.867 1015.7 718.922 1009.41 718.871C1007.14 720.765 1005.39 723.197 1004.3 725.946C1001.75 735.523 1018.99 773.833 1060.49 800.65C1102 827.467 1116.04 822.998 1128.17 820.444C1140.31 817.89 1142.22 803.23 1123.07 791.098Z" stroke="#0050D7" stroke-linecap="round" stroke-linejoin="round"/>
<path d="M1126.26 795.567C1109.66 785.99 1075.82 779.605 1054.11 764.919C1032.4 750.234 1038.14 737.464 1022.18 727.248C1019.63 725.341 1016.58 724.228 1013.4 724.046C1010.22 723.864 1007.06 724.623 1004.3 726.226C1002.08 736.187 1019.37 774.063 1060.49 800.675C1101.61 827.288 1116.04 823.023 1128.17 820.469C1136.24 818.758 1139.74 811.709 1135.58 803.613C1132.97 800.399 1129.82 797.674 1126.26 795.567Z" fill="#0050D7"/>
<path opacity="0.53" d="M1126.26 795.567C1109.66 785.99 1075.82 779.605 1054.11 764.919C1032.4 750.234 1038.14 737.464 1022.18 727.248C1019.63 725.341 1016.58 724.228 1013.4 724.046C1010.22 723.864 1007.06 724.623 1004.3 726.226C1002.08 736.187 1019.37 774.063 1060.49 800.675C1101.61 827.288 1116.04 823.023 1128.17 820.469C1136.24 818.758 1139.74 811.709 1135.58 803.613C1132.97 800.399 1129.82 797.674 1126.26 795.567Z" fill="#EDF5FF"/>
<path d="M1126.26 795.567C1109.66 785.99 1075.82 779.605 1054.11 764.919C1032.4 750.234 1038.14 737.464 1022.18 727.248C1019.63 725.341 1016.58 724.228 1013.4 724.046C1010.22 723.864 1007.06 724.623 1004.3 726.226C1002.08 736.187 1019.37 774.063 1060.49 800.675C1101.61 827.288 1116.04 823.023 1128.17 820.469C1136.24 818.758 1139.74 811.709 1135.58 803.613C1132.97 800.399 1129.82 797.674 1126.26 795.567V795.567Z" stroke="#0050D7" stroke-linecap="round" stroke-linejoin="round"/>
<path d="M808.081 673.435C808.081 673.435 820.34 658.545 822.076 669.936C823.813 681.327 821.208 702.321 812.448 710.187C803.688 718.053 799.32 705.82 799.32 705.82L804.582 698.822C804.582 698.822 808.949 707.582 812.448 693.56C815.947 679.539 805.45 681.301 805.45 681.301L808.081 673.435Z" fill="#EDF5FF" stroke="#0050D7" stroke-linecap="round" stroke-linejoin="round"/>
<path d="M798.707 729.47C791.454 734.833 767.804 734.833 760.576 729.47C745.252 718.104 747.806 663.193 747.806 663.193H811.299C811.299 663.193 814.057 718.104 798.707 729.47Z" fill="#EDF5FF" stroke="#0050D7" stroke-linecap="round" stroke-linejoin="round"/>
<path d="M754.752 652.416C754.752 645.52 761.162 645.52 761.162 638.599C761.162 631.678 754.752 631.678 754.752 624.782C754.752 617.886 761.162 617.861 761.162 610.939C761.162 604.018 754.752 604.018 754.752 597.097C754.752 590.175 761.162 590.175 761.162 583.254" stroke="#0050D7" stroke-linecap="round" stroke-linejoin="round"/>
<path d="M776.691 652.416C776.691 647.308 783.102 647.309 783.102 641.92C783.102 636.531 776.691 636.684 776.691 631.423C776.691 626.161 783.102 626.187 783.102 620.926C783.102 615.664 776.691 615.664 776.691 610.403C776.691 605.142 783.102 605.167 783.102 599.906" stroke="#0050D7" stroke-linecap="round" stroke-linejoin="round"/>
<path d="M800.826 652.416C800.826 645.52 807.211 645.52 807.211 638.599C807.211 631.678 800.826 631.678 800.826 624.782C800.826 617.886 807.211 617.861 807.211 610.939C807.211 604.018 800.826 604.018 800.826 597.097C800.826 590.175 807.211 590.175 807.211 583.254" stroke="#0050D7" stroke-linecap="round" stroke-linejoin="round"/>
<path d="M811.35 663.195C811.35 664.804 797.15 666.081 779.604 666.081C762.058 666.081 747.857 664.804 747.857 663.195C747.857 661.586 762.058 660.309 779.604 660.309C797.15 660.309 811.35 661.586 811.35 663.195Z" fill="#EDF5FF" stroke="#0050D7" stroke-linecap="round" stroke-linejoin="round"/>
<path d="M869.963 267.989C869.963 267.989 872.951 300.246 874.203 310.436C875.454 320.626 878.289 349.895 881.226 359.575C884.163 369.255 900.177 386.085 901.658 382.203C903.139 378.321 911.108 351.99 907.941 336.231C904.774 320.473 903.803 307.014 905.77 303.029C907.737 299.045 914.811 294.576 914.811 294.576C906.571 290.355 898.565 285.691 890.829 280.605C879.54 273.097 871.546 264.592 869.963 267.989Z" fill="#EDF5FF"/>
<path d="M910.956 296.312L908.402 291.357C903.703 288.803 897.165 285.023 890.958 280.86C879.593 273.198 871.599 264.591 870.016 268.09C870.016 268.09 873.004 300.348 874.255 310.538C875.507 320.728 878.342 349.997 881.279 359.677C882.281 362.508 883.664 365.189 885.391 367.645C882.3 348.388 885.646 313.603 885.646 313.603L910.956 296.312Z" fill="#00168B"/>
<path opacity="0.5" d="M910.956 296.312L908.402 291.357C903.703 288.803 897.165 285.023 890.958 280.86C879.593 273.198 871.599 264.591 870.016 268.09C870.016 268.09 873.004 300.348 874.255 310.538C875.507 320.728 878.342 349.997 881.279 359.677C882.281 362.508 883.664 365.189 885.391 367.645C882.3 348.388 885.646 313.603 885.646 313.603L910.956 296.312Z" fill="#EDF5FF"/>
<path d="M869.963 267.989C869.963 267.989 872.951 300.246 874.203 310.436C875.454 320.626 878.289 349.895 881.226 359.575C884.163 369.255 900.177 386.085 901.658 382.203C903.139 378.321 911.108 351.99 907.941 336.231C904.774 320.473 903.803 307.014 905.77 303.029C907.737 299.045 914.811 294.576 914.811 294.576C906.571 290.355 898.565 285.691 890.829 280.605C879.54 273.097 871.546 264.592 869.963 267.989Z" stroke="#0050D7" stroke-linecap="round" stroke-linejoin="round"/>
<path d="M868.789 272.662C868.789 272.662 887.178 287.986 901.276 293.605C915.374 299.224 937.032 298.867 940.123 291.537C943.213 284.207 934.759 226.154 927.48 210.881C920.201 195.608 912.437 195.353 899.591 194.178C886.744 193.003 861.051 203.475 856.53 215.887C852.01 228.3 857.169 245.871 860.898 256.291C862.869 262.042 865.519 267.538 868.789 272.662Z" fill="#EDF5FF"/>
<path d="M901.811 271.971C895.298 252.663 893.664 222.27 893.664 214.174C893.664 207.917 909.958 201.047 917.391 198.237C912.512 195.224 906.843 194.841 899.513 194.176C886.743 193.027 860.973 203.473 856.452 215.885C851.932 228.298 857.091 245.869 860.819 256.29C862.791 262.041 865.441 267.536 868.711 272.661C868.711 272.661 887.1 287.985 901.198 293.604C910.969 297.301 921.551 298.315 931.846 296.541C921.758 292.735 906.153 284.869 901.811 271.971Z" fill="#00168B"/>
<path opacity="0.5" d="M901.811 271.971C895.298 252.663 893.664 222.27 893.664 214.174C893.664 207.917 909.958 201.047 917.391 198.237C912.512 195.224 906.843 194.841 899.513 194.176C886.743 193.027 860.973 203.473 856.452 215.885C851.932 228.298 857.091 245.869 860.819 256.29C862.791 262.041 865.441 267.536 868.711 272.661C868.711 272.661 887.1 287.985 901.198 293.604C910.969 297.301 921.551 298.315 931.846 296.541C921.758 292.735 906.153 284.869 901.811 271.971Z" fill="#EDF5FF"/>
<path d="M868.789 272.662C868.789 272.662 887.178 287.986 901.276 293.605C915.374 299.224 937.032 298.867 940.123 291.537C943.213 284.207 934.759 226.154 927.48 210.881C920.201 195.608 912.437 195.353 899.591 194.178C886.744 193.003 861.051 203.475 856.53 215.887C852.01 228.3 857.169 245.871 860.898 256.291C862.869 262.042 865.519 267.538 868.789 272.662V272.662Z" stroke="#0050D7" stroke-linecap="round" stroke-linejoin="round"/>
<path d="M928.859 234.786C929.165 242.142 924.543 248.297 918.643 248.527C912.743 248.757 907.584 243.01 907.303 235.757C907.022 228.503 911.619 222.246 917.519 221.991C923.419 221.735 928.578 227.354 928.859 234.786Z" stroke="#0050D7" stroke-linecap="round" stroke-linejoin="round"/>
<path d="M943.315 231.926C943.622 239.282 941.247 245.335 938.028 245.463C934.81 245.59 931.95 239.742 931.669 232.386C931.388 225.031 933.763 218.952 936.981 218.824C940.199 218.697 943.034 224.571 943.315 231.926Z" stroke="#0050D7" stroke-linecap="round" stroke-linejoin="round"/>
<path d="M929.625 232.078C929.625 232.078 950.721 236.088 948.678 241.17C946.635 246.253 932.383 251.744 932.383 251.744" fill="#EDF5FF"/>
<path d="M929.625 232.078C929.625 232.078 950.721 236.088 948.678 241.17C946.635 246.253 932.383 251.744 932.383 251.744" stroke="#0050D7" stroke-linecap="round" stroke-linejoin="round"/>
<path d="M928.322 229.678C928.322 229.678 928.629 227.124 931.872 228.733" stroke="#0050D7" stroke-linecap="round" stroke-linejoin="round"/>
<path d="M906.638 236.777L868.277 251.871" stroke="#0050D7" stroke-linecap="round" stroke-linejoin="round"/>
<path d="M907.15 224.366C907.958 222.54 909.308 221.007 911.017 219.975C912.725 218.942 914.71 218.46 916.702 218.594" stroke="#0050D7" stroke-width="2" stroke-linecap="round" stroke-linejoin="round"/>
<path d="M932.691 218.771L926.791 220.993" stroke="#0050D7" stroke-width="2" stroke-linecap="round" stroke-linejoin="round"/>
<path d="M914.455 263.722C914.455 263.722 922.117 265.714 926.459 261.168" stroke="#0050D7" stroke-linecap="round" stroke-linejoin="round"/>
<path d="M919.384 236.114C919.741 238.668 919.384 240.864 918.336 240.992C917.289 241.119 916.37 239.153 916.012 236.573C915.655 233.994 916.14 231.848 917.085 231.721C918.03 231.593 919.052 233.56 919.384 236.114Z" fill="#0050D7"/>
<path d="M871.854 251.974C871.854 251.974 869.3 257.082 876.502 257.338C883.704 257.593 888.608 254.094 885.109 249.676C881.61 245.257 876.425 241.12 881.763 235.348C887.101 229.576 897.47 224.723 891.647 218.287C885.824 211.851 864.396 217.7 869.759 212.49C875.123 207.279 899.896 201.839 911.032 202.529C922.167 203.219 942.957 194.586 947.529 183.297C952.1 172.009 945.715 151.143 930.749 152.266C915.782 153.39 904.621 166.645 897.981 167.59C891.341 168.535 877.728 161.154 866.311 167.59C854.895 174.026 854.512 192.517 853.541 194.79C852.571 197.063 837.094 200.435 834.361 216.091C833.335 222.403 833.773 228.866 835.642 234.981C837.511 241.097 840.76 246.701 845.139 251.361C851.549 258.334 854.435 260.99 854.435 260.99L871.854 251.974Z" fill="#032359" stroke="#0050D7" stroke-linecap="round" stroke-linejoin="round"/>
<path d="M839.367 223.676C839.233 226.052 839.802 228.414 841.001 230.469" stroke="#EDF5FF" stroke-width="0.75" stroke-linecap="round" stroke-linejoin="round"/>
<path d="M904.468 183.247C904.468 183.247 898.9 171.064 913.1 171.064C927.3 171.064 929.344 188.942 914.633 195.43C899.922 201.917 867.92 203.551 850.655 211.188C847.267 212.514 844.252 214.644 841.869 217.394" stroke="#EDF5FF" stroke-width="0.75" stroke-linecap="round" stroke-linejoin="round"/>
<path d="M878.75 226.512C873.642 228.351 867.028 230.905 860.31 234.02C846.085 240.635 849.124 247.225 849.124 247.225" stroke="#EDF5FF" stroke-width="0.75" stroke-linecap="round" stroke-linejoin="round"/>
<path d="M888.225 223.369C888.225 223.369 886.973 223.727 884.854 224.416" stroke="#EDF5FF" stroke-width="0.75" stroke-linecap="round" stroke-linejoin="round"/>
<path d="M874.28 257.44C874.28 257.44 866.03 245.538 857.347 250.314C848.663 255.09 855.406 272.074 860.641 277.974C865.877 283.874 875.965 272.866 877.012 270.108" fill="#EDF5FF"/>
<path d="M874.28 257.44C874.28 257.44 866.03 245.538 857.347 250.314C848.663 255.09 855.406 272.074 860.641 277.974C865.877 283.874 875.965 272.866 877.012 270.108" fill="#00168B"/>
<path opacity="0.5" d="M874.28 257.44C874.28 257.44 866.03 245.538 857.347 250.314C848.663 255.09 855.406 272.074 860.641 277.974C865.877 283.874 875.965 272.866 877.012 270.108" fill="#EDF5FF"/>
<path d="M874.28 257.44C874.28 257.44 866.03 245.538 857.347 250.314C848.663 255.09 855.406 272.074 860.641 277.974C865.877 283.874 875.965 272.866 877.012 270.108" stroke="#0050D7" stroke-linecap="round" stroke-linejoin="round"/>
<path d="M770.102 246.586H587.032C579.81 246.586 573.955 252.441 573.955 259.662V393.492C573.955 400.714 579.81 406.569 587.032 406.569H770.102C777.324 406.569 783.179 400.714 783.179 393.492V259.662C783.179 252.441 777.324 246.586 770.102 246.586Z" fill="#EDF5FF" stroke="#0050D7" stroke-linecap="round" stroke-linejoin="round"/>
<path d="M779.195 361.668L901.787 393.593L779.195 333.574" fill="#EDF5FF"/>
<path d="M779.195 361.668L901.787 393.593L779.195 333.574" stroke="#0050D7" stroke-linecap="round" stroke-linejoin="round"/>
<path d="M640.079 261.961H590.863V391.193H640.079V261.961Z" fill="#0050D7" stroke="#0050D7" stroke-linecap="round" stroke-linejoin="round"/>
<path d="M772.325 261.961H766.17V391.193H772.325V261.961Z" fill="#00168B" stroke="#0050D7" stroke-linecap="round" stroke-linejoin="round"/>
<path d="M772.325 321.035H766.17V332.068H772.325V321.035Z" fill="#0050D7" stroke="#0050D7" stroke-linecap="round" stroke-linejoin="round"/>
<path d="M655.479 265.025H752.403" stroke="#0050D7" stroke-linecap="round" stroke-linejoin="round"/>
<path d="M655.479 278.867H752.403" stroke="#0050D7" stroke-linecap="round" stroke-linejoin="round"/>
<path d="M655.479 292.736H752.403" stroke="#0050D7" stroke-linecap="round" stroke-linejoin="round"/>
<path d="M655.479 306.578H752.403" stroke="#0050D7" stroke-linecap="round" stroke-linejoin="round"/>
<path d="M655.479 340.42H752.403" stroke="#0050D7" stroke-linecap="round" stroke-linejoin="round"/>
<path d="M655.479 352.73H752.403" stroke="#0050D7" stroke-linecap="round" stroke-linejoin="round"/>
<path d="M655.479 365.039H752.403" stroke="#0050D7" stroke-linecap="round" stroke-linejoin="round"/>
<path d="M655.479 390.58H752.403" stroke="#0050D7" stroke-linecap="round" stroke-linejoin="round"/>
<path d="M590.863 391.168L640.104 261.961" stroke="#0050D7" stroke-linecap="round" stroke-linejoin="round"/>
<path d="M1282.64 446.205C1287.21 448.197 1298.4 447.941 1298.4 447.941C1298.4 447.941 1296 440.611 1295.84 440.279C1293.29 435.171 1285.63 426.667 1279.32 427.509C1278.28 427.697 1277.3 428.097 1276.42 428.683C1275.55 429.269 1274.8 430.029 1274.23 430.916C1273.67 431.803 1273.29 432.797 1273.12 433.837C1272.95 434.876 1273 435.939 1273.27 436.959C1274.21 441.25 1278.73 444.494 1282.64 446.205Z" fill="#0050D7"/>
</g>
<path d="M178.563 383.304H176.515V395H183.459V393.112H178.563V383.304ZM188.216 395.208C190.28 395.208 191.72 394.168 192.056 392.44H190.248C190.024 393.192 189.32 393.608 188.248 393.608C186.952 393.608 186.216 392.904 186.072 391.512L192.024 391.496V390.904C192.024 388.44 190.52 386.856 188.152 386.856C185.832 386.856 184.216 388.568 184.216 391.048C184.216 393.496 185.864 395.208 188.216 395.208ZM188.168 388.456C189.336 388.456 190.088 389.176 190.088 390.264H186.12C186.312 389.08 187.016 388.456 188.168 388.456ZM196.196 395V388.728H197.732V387.096H196.196V384.632H194.244V387.096H192.724V388.728H194.244V395H196.196ZM201.426 384.648C201.426 383.688 200.882 383.08 200.13 383.08C199.426 383.08 198.946 383.576 198.946 384.28C198.946 384.984 199.41 385.384 199.986 385.384C200.162 385.384 200.306 385.352 200.434 385.304C200.434 385.864 199.938 386.296 199.25 386.424V387.192C200.53 387.032 201.426 385.992 201.426 384.648ZM201.978 392.6C201.978 394.152 203.226 395.208 205.194 395.208C207.146 395.208 208.506 394.216 208.506 392.616C208.506 391.4 207.834 390.792 206.506 390.488L205.082 390.152C204.41 389.992 204.058 389.704 204.058 389.256C204.058 388.664 204.506 388.312 205.274 388.312C206.026 388.312 206.474 388.744 206.49 389.416H208.346C208.33 387.88 207.13 386.856 205.354 386.856C203.53 386.856 202.218 387.784 202.218 389.336C202.218 390.6 202.906 391.272 204.33 391.592L205.754 391.928C206.458 392.088 206.666 392.376 206.666 392.776C206.666 393.352 206.17 393.72 205.258 393.72C204.362 393.72 203.85 393.288 203.834 392.6H201.978ZM219.713 385.032C221.121 385.032 222.305 385.672 222.673 387.048H224.833C224.497 384.664 222.433 383.112 219.761 383.112C216.241 383.112 213.921 385.64 213.921 389.192C213.921 392.792 216.209 395.176 219.489 395.176C221.073 395.176 222.401 394.552 223.041 393.656L223.169 395H224.897V388.424H219.457V390.232H222.993V390.28C222.993 392.152 221.761 393.272 219.729 393.272C217.569 393.272 216.065 391.848 216.065 389.24C216.065 386.712 217.393 385.032 219.713 385.032ZM230.357 395.208C232.421 395.208 233.861 394.168 234.197 392.44H232.389C232.165 393.192 231.461 393.608 230.389 393.608C229.093 393.608 228.357 392.904 228.213 391.512L234.165 391.496V390.904C234.165 388.44 232.661 386.856 230.293 386.856C227.973 386.856 226.357 388.568 226.357 391.048C226.357 393.496 228.005 395.208 230.357 395.208ZM230.309 388.456C231.477 388.456 232.229 389.176 232.229 390.264H228.261C228.453 389.08 229.157 388.456 230.309 388.456ZM238.337 395V388.728H239.873V387.096H238.337V384.632H236.385V387.096H234.865V388.728H236.385V395H238.337ZM245.015 386.568C245.015 388.36 246.055 389.496 248.039 389.928L249.895 390.344C250.855 390.552 251.255 391.016 251.255 391.8C251.255 392.776 250.391 393.368 249.031 393.368C247.719 393.368 246.919 392.776 246.903 391.784H244.855C244.903 393.88 246.535 395.208 249.031 395.208C251.607 395.208 253.303 393.8 253.303 391.624C253.303 389.88 252.327 388.856 250.327 388.424L248.487 388.024C247.511 387.8 247.063 387.336 247.063 386.504C247.063 385.528 247.879 384.92 249.143 384.92C250.295 384.92 251.015 385.512 251.063 386.52H253.111C253.047 384.408 251.543 383.096 249.175 383.096C246.711 383.096 245.015 384.52 245.015 386.568ZM257.555 395V388.728H259.091V387.096H257.555V384.632H255.603V387.096H254.083V388.728H255.603V395H257.555ZM262.61 395.208C263.842 395.208 264.914 394.648 265.25 393.832L265.394 395H267.106V390.2C267.106 388.008 265.794 386.856 263.666 386.856C261.522 386.856 260.114 387.976 260.114 389.688H261.778C261.778 388.856 262.418 388.376 263.57 388.376C264.562 388.376 265.202 388.808 265.202 389.88V390.056L262.834 390.232C260.962 390.376 259.906 391.288 259.906 392.744C259.906 394.232 260.93 395.208 262.61 395.208ZM263.25 393.736C262.37 393.736 261.89 393.384 261.89 392.664C261.89 392.024 262.354 391.624 263.57 391.512L265.218 391.384V391.8C265.218 393.016 264.45 393.736 263.25 393.736ZM273.984 387.064C273.664 386.984 273.392 386.952 273.12 386.952C272.064 386.952 271.312 387.48 270.976 388.264L270.864 387.112H269.024V395H270.976V391.16C270.976 389.624 271.856 388.872 273.264 388.872H273.984V387.064ZM278.305 395V388.728H279.841V387.096H278.305V384.632H276.353V387.096H274.833V388.728H276.353V395H278.305ZM284.513 395.208C286.577 395.208 288.017 394.168 288.353 392.44H286.545C286.321 393.192 285.617 393.608 284.545 393.608C283.249 393.608 282.513 392.904 282.369 391.512L288.321 391.496V390.904C288.321 388.44 286.817 386.856 284.449 386.856C282.129 386.856 280.513 388.568 280.513 391.048C280.513 393.496 282.161 395.208 284.513 395.208ZM284.465 388.456C285.633 388.456 286.385 389.176 286.385 390.264H282.417C282.609 389.08 283.313 388.456 284.465 388.456ZM293.131 395.208C294.331 395.208 295.355 394.68 295.835 393.768L295.963 395H297.755V383.096H295.819V388.104C295.323 387.32 294.347 386.856 293.243 386.856C290.859 386.856 289.419 388.616 289.419 391.08C289.419 393.528 290.843 395.208 293.131 395.208ZM293.563 393.416C292.203 393.416 291.371 392.424 291.371 391.016C291.371 389.608 292.203 388.6 293.563 388.6C294.923 388.6 295.803 389.592 295.803 391.016C295.803 392.44 294.923 393.416 293.563 393.416Z" fill="#F9FBFF"/>
<rect x="152" y="364" width="170" height="50" rx="25" stroke="#F9FBFF" stroke-width="2"/>
<defs>
<clipPath id="clip0_1232_4942">
<rect width="719" height="818" fill="white" transform="translate(554 4)"/>
</clipPath>
</defs>
</svg>
